<svg width="14" height="14" viewBox="0 0 14 14" fill="none" xmlns="http://www.w3.org/2000/svg">
<path fill-rule="evenodd" clip-rule="evenodd" d="M7.44202 0.724685C7.6861 0.968763 7.6861 1.36449 7.44202 1.60857L2.67563 6.37495H12.8334C13.1786 6.37495 13.4584 6.65477 13.4584 6.99995C13.4584 7.34512 13.1786 7.62495 12.8334 7.62495H2.67563L7.44202 12.3914C7.6861 12.6354 7.6861 13.0312 7.44202 13.2752C7.19795 13.5193 6.80222 13.5193 6.55814 13.2752L0.724806 7.44189C0.607596 7.32468 0.541748 7.16571 0.541748 6.99995C0.541748 6.83419 0.607596 6.67521 0.724807 6.558L6.55814 0.724684C6.80222 0.480606 7.19795 0.480607 7.44202 0.724685Z" fill="white"/>
</svg>
