<svg width="14" height="14" viewBox="0 0 14 14" fill="none" xmlns="http://www.w3.org/2000/svg">
<path fill-rule="evenodd" clip-rule="evenodd" d="M6.55813 0.724685C6.8022 0.480607 7.19793 0.480606 7.44201 0.724683L13.2754 6.558C13.3926 6.67521 13.4584 6.83418 13.4584 6.99995C13.4584 7.16571 13.3926 7.32468 13.2754 7.44189L7.44201 13.2752C7.19793 13.5193 6.8022 13.5193 6.55813 13.2752C6.31405 13.0312 6.31405 12.6354 6.55813 12.3914L11.3245 7.62495H1.16675C0.82157 7.62495 0.541748 7.34512 0.541748 6.99995C0.541748 6.65477 0.82157 6.37495 1.16675 6.37495H11.3245L6.55813 1.60857C6.31405 1.36449 6.31405 0.968764 6.55813 0.724685Z" fill="white"/>
</svg>
