<svg width="16" height="16" viewBox="0 0 16 16" fill="none" xmlns="http://www.w3.org/2000/svg">
<path fill-rule="evenodd" clip-rule="evenodd" d="M10.6665 0.666504C10.2983 0.666504 9.99983 0.964981 9.99983 1.33317V1.99982H5.99985V1.33317C5.99985 0.964981 5.70137 0.666504 5.33318 0.666504C4.96499 0.666504 4.66651 0.964981 4.66651 1.33317V1.99982H3.33317C2.2286 1.99982 1.33317 2.89525 1.33317 3.99982V13.3331C1.33317 14.4377 2.2286 15.3331 3.33317 15.3331H12.6665C13.7711 15.3331 14.6665 14.4377 14.6665 13.3331V3.99982C14.6665 2.89525 13.7711 1.99982 12.6665 1.99982H11.3332V1.33317C11.3332 0.964981 11.0347 0.666504 10.6665 0.666504ZM11.3332 3.33315H12.6665C13.0347 3.33315 13.3332 3.63163 13.3332 3.99982V5.99982H2.6665V3.99982C2.6665 3.63163 2.96498 3.33315 3.33317 3.33315H4.66651V3.99984C4.66651 4.36803 4.96499 4.6665 5.33318 4.6665C5.70137 4.6665 5.99985 4.36803 5.99985 3.99984V3.33315H9.99983V3.99984C9.99983 4.36803 10.2983 4.6665 10.6665 4.6665C11.0347 4.6665 11.3332 4.36803 11.3332 3.99984V3.33315ZM2.6665 7.33315H13.3332V13.3331C13.3332 13.7013 13.0347 13.9998 12.6665 13.9998H3.33317C2.96498 13.9998 2.6665 13.7013 2.6665 13.3331V7.33315Z" fill="#B0B8BF"/>
</svg>
