<svg width="17" height="16" viewBox="0 0 17 16" fill="none" xmlns="http://www.w3.org/2000/svg">
<path fill-rule="evenodd" clip-rule="evenodd" d="M0.666992 0.666992C0.666992 0.39085 0.89085 0.166992 1.16699 0.166992H3.83366C4.07197 0.166992 4.27716 0.335185 4.32394 0.568864L4.91067 3.50033H15.8337C15.9827 3.50033 16.1239 3.56679 16.2189 3.6816C16.3139 3.79642 16.3527 3.94761 16.3248 4.09399L15.2574 9.69107C15.1736 10.1131 14.944 10.4922 14.6088 10.762C14.275 11.0307 13.8576 11.174 13.4292 11.167H6.95808C6.5297 11.174 6.11232 11.0307 5.77849 10.762C5.44348 10.4923 5.21395 10.1135 5.13002 9.69166L4.01536 4.12251C4.01147 4.10702 4.00831 4.09125 4.0059 4.07523L3.42382 1.16699H1.16699C0.89085 1.16699 0.666992 0.943135 0.666992 0.666992ZM5.11081 4.50033L6.11075 9.49625C6.14885 9.68808 6.25321 9.8604 6.40556 9.98304C6.5579 10.1057 6.74854 10.1708 6.94408 10.1671L6.95366 10.167H13.4337L13.4432 10.1671C13.6388 10.1708 13.8294 10.1057 13.9818 9.98304C14.1337 9.86075 14.2379 9.68905 14.2762 9.49787L14.2766 9.49625L15.2293 4.50033H5.11081ZM5.33368 14.0003C5.33368 13.356 5.85602 12.8337 6.50035 12.8337C7.14468 12.8337 7.66701 13.356 7.66701 14.0003C7.66701 14.6447 7.14468 15.167 6.50035 15.167C5.85602 15.167 5.33368 14.6447 5.33368 14.0003ZM12.667 14.0003C12.667 13.356 13.1893 12.8337 13.8337 12.8337C14.478 12.8337 15.0003 13.356 15.0003 14.0003C15.0003 14.6447 14.478 15.167 13.8337 15.167C13.1893 15.167 12.667 14.6447 12.667 14.0003Z" fill="white"/>
</svg>
