<svg width="54" height="54" viewBox="0 0 54 54" fill="none" xmlns="http://www.w3.org/2000/svg">
<path d="M11.8652 11.9338L26.9706 22.3395L42.076 11.9338L31.6703 27.0392L42.076 42.1446L26.9706 31.7389L11.8652 42.1446L22.2709 27.0392L11.8652 11.9338Z" fill="#319CFF"/>
<path fill-rule="evenodd" clip-rule="evenodd" d="M27 54C41.9117 54 54 41.9117 54 27C54 12.0883 41.9117 0 27 0C12.0883 0 0 12.0883 0 27C0 41.9117 12.0883 54 27 54ZM26.9977 50.2197C39.8218 50.2197 50.2177 39.8238 50.2177 26.9997C50.2177 14.1756 39.8218 3.7797 26.9977 3.7797C14.1736 3.7797 3.7777 14.1756 3.7777 26.9997C3.7777 39.8238 14.1736 50.2197 26.9977 50.2197Z" fill="#319CFF"/>
</svg>
