<svg width="16" height="16" viewBox="0 0 16 16" fill="none" xmlns="http://www.w3.org/2000/svg">
<g opacity="0.8" clip-path="url(#clip0_3_17066)">
<path fill-rule="evenodd" clip-rule="evenodd" d="M13.3335 1.99996C13.5103 1.99996 13.6799 2.0702 13.8049 2.19522C13.9299 2.32025 14.0002 2.48981 14.0002 2.66663V8.66663C14.0002 8.84344 13.9299 9.01301 13.8049 9.13803C13.6799 9.26305 13.5103 9.33329 13.3335 9.33329H12.6668C12.2986 9.33329 12.0002 9.63177 12.0002 9.99996C12.0002 10.3681 12.2986 10.6666 12.6668 10.6666H13.3335C13.8639 10.6666 14.3726 10.4559 14.7477 10.0808C15.1228 9.70577 15.3335 9.19706 15.3335 8.66663V2.66663C15.3335 2.13619 15.1228 1.62749 14.7477 1.25241C14.3726 0.87734 13.8639 0.666626 13.3335 0.666626H7.3335C6.80306 0.666626 6.29436 0.87734 5.91928 1.25241C5.54421 1.62748 5.3335 2.13619 5.3335 2.66663V3.33329C5.3335 3.70148 5.63197 3.99996 6.00016 3.99996C6.36835 3.99996 6.66683 3.70148 6.66683 3.33329V2.66663C6.66683 2.48982 6.73707 2.32025 6.86209 2.19522C6.98712 2.0702 7.15668 1.99996 7.3335 1.99996H13.3335ZM8.66684 6.66662C9.03503 6.66662 9.33351 6.96509 9.33351 7.33328V13.3333C9.33351 13.7015 9.03503 13.9999 8.66684 13.9999H2.66684C2.29865 13.9999 2.00017 13.7015 2.00017 13.3333V7.33328C2.00017 6.96509 2.29865 6.66662 2.66684 6.66662H8.66684ZM10.6668 7.33328C10.6668 6.22871 9.77141 5.33328 8.66684 5.33328H2.66684C1.56227 5.33328 0.666841 6.22871 0.666841 7.33328V13.3333C0.666841 14.4379 1.56227 15.3333 2.66684 15.3333H8.66684C9.77141 15.3333 10.6668 14.4379 10.6668 13.3333V7.33328Z" fill="#64707B"/>
</g>
<defs>
<clipPath id="clip0_3_17066">
<rect width="16" height="16" fill="white" transform="matrix(-1 0 0 1 16 0)"/>
</clipPath>
</defs>
</svg>
