<svg width="18" height="18" viewBox="0 0 18 18" fill="none" xmlns="http://www.w3.org/2000/svg">
<path fill-rule="evenodd" clip-rule="evenodd" d="M9 0.875C9.34518 0.875 9.625 1.15482 9.625 1.5L9.62499 9.9911L12.7247 6.89138C12.9688 6.6473 13.3645 6.6473 13.6086 6.89138C13.8527 7.13546 13.8527 7.53118 13.6086 7.77526L9.44193 11.9419C9.19785 12.186 8.80212 12.186 8.55805 11.9419L4.39138 7.77526C4.1473 7.53118 4.1473 7.13546 4.39138 6.89138C4.63546 6.6473 5.03118 6.6473 5.27526 6.89138L8.37499 9.99111L8.375 1.5C8.375 1.15482 8.65482 0.875 9 0.875ZM1.5 10.875C1.84518 10.875 2.125 11.1548 2.125 11.5V14.8333C2.125 15.1096 2.23475 15.3746 2.4301 15.5699C2.62545 15.7653 2.8904 15.875 3.16667 15.875H14.8333C15.1096 15.875 15.3746 15.7653 15.5699 15.5699C15.7653 15.3746 15.875 15.1096 15.875 14.8333V11.5C15.875 11.1548 16.1548 10.875 16.5 10.875C16.8452 10.875 17.125 11.1548 17.125 11.5V14.8333C17.125 15.4411 16.8836 16.024 16.4538 16.4538C16.024 16.8836 15.4411 17.125 14.8333 17.125H3.16667C2.55888 17.125 1.97598 16.8836 1.54621 16.4538C1.11644 16.024 0.875 15.4411 0.875 14.8333V11.5C0.875 11.1548 1.15482 10.875 1.5 10.875Z" fill="white"/>
</svg>
