<svg width="16" height="16" viewBox="0 0 16 16" fill="none" xmlns="http://www.w3.org/2000/svg">
<g clip-path="url(#clip0_3_16966)">
<path fill-rule="evenodd" clip-rule="evenodd" d="M14.5728 8C14.5 8.12591 14.4034 8.28637 14.2837 8.47165C13.9764 8.94754 13.5212 9.5804 12.9303 10.2107C11.7363 11.4843 10.067 12.6667 8 12.6667C5.93301 12.6667 4.26368 11.4843 3.06969 10.2107C2.47878 9.5804 2.02362 8.94754 1.71628 8.47165C1.59662 8.28637 1.50002 8.12591 1.42716 8C1.50002 7.87409 1.59662 7.71363 1.71628 7.52835C2.02362 7.05246 2.47878 6.4196 3.06969 5.78929C4.26368 4.51571 5.93301 3.33333 8 3.33333C10.067 3.33333 11.7363 4.51571 12.9303 5.78929C13.5212 6.4196 13.9764 7.05246 14.2837 7.52835C14.4034 7.71363 14.5 7.87409 14.5728 8ZM0.666668 8C0.0703834 7.70186 0.0704953 7.70163 0.0706174 7.70139L0.0716931 7.69925L0.0739946 7.69469L0.0815592 7.67988C0.0879183 7.66752 0.0969057 7.65021 0.108504 7.62829C0.131694 7.58447 0.16535 7.52215 0.209315 7.44399C0.297195 7.28776 0.426568 7.06768 0.596224 6.80498C0.934711 6.28087 1.43789 5.5804 2.09698 4.87737C3.40299 3.48429 5.40033 2 8 2C10.5997 2 12.597 3.48429 13.903 4.87737C14.5621 5.5804 15.0653 6.28087 15.4038 6.80498C15.5734 7.06768 15.7028 7.28776 15.7907 7.44399C15.8347 7.52215 15.8683 7.58447 15.8915 7.62829C15.9031 7.65021 15.9121 7.66752 15.9184 7.67988L15.926 7.69469L15.9283 7.69925L15.9291 7.7008C15.9292 7.70104 15.9296 7.70186 15.3333 8L15.9296 7.70186C16.0235 7.88954 16.0235 8.11046 15.9296 8.29814L15.3333 8C15.9296 8.29814 15.9297 8.2979 15.9296 8.29814L15.9291 8.2992L15.9283 8.30075L15.926 8.30531L15.9184 8.32012C15.9121 8.33248 15.9031 8.34979 15.8915 8.37171C15.8683 8.41553 15.8347 8.47785 15.7907 8.55601C15.7028 8.71224 15.5734 8.93232 15.4038 9.19502C15.0653 9.71912 14.5621 10.4196 13.903 11.1226C12.597 12.5157 10.5997 14 8 14C5.40033 14 3.40299 12.5157 2.09698 11.1226C1.43789 10.4196 0.934711 9.71912 0.596224 9.19502C0.426568 8.93232 0.297195 8.71224 0.209315 8.55601C0.16535 8.47785 0.131694 8.41553 0.108504 8.37171C0.0969057 8.34979 0.0879183 8.33248 0.0815592 8.32012L0.0739946 8.30531L0.0716931 8.30075L0.0709149 8.2992C0.0707928 8.29896 0.0703834 8.29814 0.666668 8ZM0.666668 8L0.0703834 8.29814C-0.0234594 8.11046 -0.0232255 7.88907 0.0706174 7.70139L0.666668 8ZM7.99999 6.66668C8.73637 6.66668 9.33332 7.26363 9.33332 8.00001C9.33332 8.73639 8.73637 9.33334 7.99999 9.33334C7.26361 9.33334 6.66666 8.73639 6.66666 8.00001C6.66666 7.26363 7.26361 6.66668 7.99999 6.66668ZM10.6667 8.00001C10.6667 6.52725 9.47275 5.33334 7.99999 5.33334C6.52723 5.33334 5.33332 6.52725 5.33332 8.00001C5.33332 9.47277 6.52723 10.6667 7.99999 10.6667C9.47275 10.6667 10.6667 9.47277 10.6667 8.00001Z" fill="#B0B8BF"/>
</g>
<defs>
<clipPath id="clip0_3_16966">
<rect width="16" height="16" fill="white" transform="matrix(-1 0 0 1 16 0)"/>
</clipPath>
</defs>
</svg>
