<svg width="16" height="16" viewBox="0 0 16 16" fill="none" xmlns="http://www.w3.org/2000/svg">
<path fill-rule="evenodd" clip-rule="evenodd" d="M9.64115 1.66208C10.167 1.44418 10.7307 1.33203 11.2999 1.33203C11.8691 1.33203 12.4328 1.44418 12.9587 1.66208C13.4845 1.87994 13.9622 2.19923 14.3645 2.60173C14.767 3.0041 15.0866 3.48204 15.3044 4.00782C15.5223 4.53369 15.6345 5.09735 15.6345 5.66658C15.6345 6.23581 15.5223 6.79947 15.3044 7.32535C15.0865 7.85117 14.7672 8.32893 14.3647 8.73132C14.3646 8.73136 14.3647 8.73128 14.3647 8.73132L8.47132 14.6247C8.21097 14.885 7.78886 14.885 7.52851 14.6247L1.63518 8.73132C0.82236 7.9185 0.365723 6.81608 0.365723 5.66658C0.365723 4.51708 0.82236 3.41466 1.63518 2.60184C2.448 1.78902 3.55042 1.33239 4.69992 1.33239C5.84942 1.33239 6.95183 1.78902 7.76465 2.60184L7.99992 2.83711L8.23507 2.60195C8.23503 2.60199 8.2351 2.60192 8.23507 2.60195C8.63746 2.1994 9.11532 1.87996 9.64115 1.66208ZM11.2999 2.66536C10.9058 2.66536 10.5156 2.74301 10.1515 2.89386C9.78747 3.04471 9.45669 3.26582 9.1781 3.54454L8.47132 4.25132C8.21097 4.51167 7.78886 4.51167 7.52851 4.25132L6.82184 3.54465C6.25907 2.98188 5.49579 2.66572 4.69992 2.66572C3.90404 2.66572 3.14076 2.98188 2.57799 3.54465C2.01522 4.10742 1.69906 4.8707 1.69906 5.66658C1.69906 6.46246 2.01522 7.22574 2.57799 7.78851L7.99992 13.2104L13.4218 7.78851C13.7006 7.50992 13.9218 7.17903 14.0726 6.81496C14.2235 6.45089 14.3011 6.06066 14.3011 5.66658C14.3011 5.2725 14.2235 4.88227 14.0726 4.51821C13.9218 4.15414 13.7007 3.82336 13.422 3.54476C13.1434 3.26604 12.8124 3.04471 12.4483 2.89386C12.0842 2.74301 11.694 2.66536 11.2999 2.66536Z" fill="#64707B"/>
</svg>
