<svg width="14" height="14" viewBox="0 0 14 14" fill="none" xmlns="http://www.w3.org/2000/svg">
<path d="M3.20833 11.875H10.7917C11.079 11.875 11.3545 11.7609 11.5577 11.5577C11.7609 11.3545 11.875 11.079 11.875 10.7917V3.20833C11.875 2.92102 11.7609 2.64547 11.5577 2.4423C11.3545 2.23914 11.079 2.125 10.7917 2.125H3.20833C2.92102 2.125 2.64547 2.23914 2.4423 2.4423C2.23914 2.64547 2.125 2.92102 2.125 3.20833V10.7917C2.125 11.079 2.23914 11.3545 2.4423 11.5577C2.64547 11.7609 2.92102 11.875 3.20833 11.875ZM4.83333 7.08333L6.11329 8.36329L8.08333 4.45833L10.7917 10.25H3.20833L4.83333 7.08333Z" fill="white"/>
</svg>
