<svg width="16" height="16" viewBox="0 0 16 16" fill="none" xmlns="http://www.w3.org/2000/svg">
<g clip-path="url(#clip0_3_16757)">
<path fill-rule="evenodd" clip-rule="evenodd" d="M6.72396 1.06241C6.83096 0.82166 7.06971 0.666504 7.33317 0.666504C8.04041 0.666504 8.71869 0.947455 9.21879 1.44755C9.71889 1.94765 9.99984 2.62593 9.99984 3.33317V5.33317H13.1031C13.3916 5.3305 13.6773 5.39028 13.9405 5.50843C14.205 5.62714 14.4406 5.80195 14.6308 6.02073C14.8211 6.23951 14.9615 6.49703 15.0423 6.77546C15.1231 7.05389 15.1425 7.34657 15.099 7.63321L14.179 13.6331C14.1789 13.6333 14.179 13.633 14.179 13.6331C14.1065 14.1098 13.8643 14.5448 13.4969 14.8571C13.1304 15.1687 12.6639 15.3376 12.183 15.3332H2.6665C2.13607 15.3332 1.62736 15.1225 1.25229 14.7474C0.877218 14.3723 0.666504 13.8636 0.666504 13.3332V8.6665C0.666504 8.13607 0.877218 7.62736 1.25229 7.25229C1.62736 6.87722 2.13607 6.6665 2.6665 6.6665H4.23326L6.72396 1.06241ZM3.99984 7.99984H2.6665C2.48969 7.99984 2.32012 8.07008 2.1951 8.1951C2.07008 8.32012 1.99984 8.48969 1.99984 8.6665V13.3332C1.99984 13.51 2.07008 13.6795 2.1951 13.8046C2.32012 13.9296 2.48969 13.9998 2.6665 13.9998H3.99984V7.99984ZM5.33317 13.9998H12.194C12.3548 14.0017 12.5108 13.9453 12.6333 13.8412C12.7559 13.7371 12.8366 13.5922 12.8607 13.4332L13.7807 7.43313C13.7807 7.43322 13.7807 7.43304 13.7807 7.43313C13.7952 7.33766 13.7888 7.23993 13.7618 7.14721C13.7349 7.0544 13.6881 6.96856 13.6247 6.89563C13.5613 6.82271 13.4827 6.76444 13.3946 6.72487C13.3064 6.6853 13.2107 6.66537 13.1141 6.66646L13.1065 6.66655L9.33317 6.6665C8.96498 6.6665 8.6665 6.36803 8.6665 5.99984V3.33317C8.6665 2.97955 8.52603 2.64041 8.27598 2.39036C8.12408 2.23847 7.93931 2.127 7.73839 2.0629L5.33317 7.47465V13.9998Z" fill="#B0B8BF"/>
</g>
<defs>
<clipPath id="clip0_3_16757">
<rect width="16" height="16" fill="white"/>
</clipPath>
</defs>
</svg>
