<svg width="20" height="20" viewBox="0 0 20 20" fill="none" xmlns="http://www.w3.org/2000/svg">
<path fill-rule="evenodd" clip-rule="evenodd" d="M2.33464 4.70495L9.99984 10.0706L17.665 4.70495C17.5365 4.27533 17.1356 3.9585 16.6665 3.9585H3.33317C2.86404 3.9585 2.46319 4.27533 2.33464 4.70495ZM17.7082 6.20057L10.3583 11.3455C10.1431 11.4962 9.85662 11.4962 9.64142 11.3455L2.2915 6.20057V15.0002C2.2915 15.5716 2.76168 16.0418 3.33317 16.0418H16.6665C17.238 16.0418 17.7082 15.5716 17.7082 15.0002V6.20057ZM1.0415 5.00016C1.0415 3.73832 2.07133 2.7085 3.33317 2.7085H16.6665C17.9283 2.7085 18.9582 3.73832 18.9582 5.00016V15.0002C18.9582 16.262 17.9283 17.2918 16.6665 17.2918H3.33317C2.07133 17.2918 1.0415 16.262 1.0415 15.0002V5.00016Z" fill="white"/>
</svg>
