<svg width="16" height="16" viewBox="0 0 16 16" fill="none" xmlns="http://www.w3.org/2000/svg">
<path d="M14.0001 14.6668C14.2001 14.6668 14.3334 14.6002 14.4667 14.4668C14.6667 14.2668 14.7334 14.0002 14.6001 13.8002L13.4001 10.2668C13.8001 9.46683 14.0001 8.5335 14.0001 7.66683C14.0001 5.26683 12.6667 3.06683 10.4667 2.00016C9.60007 1.5335 8.60007 1.3335 7.66673 1.3335H7.3334C4.06673 1.5335 1.5334 4.06683 1.3334 7.26683V7.66683C1.3334 8.66683 1.5334 9.60016 2.00007 10.5335C3.06673 12.6668 5.26673 14.0002 7.66673 14.0002C8.5334 14.0002 9.46673 13.8002 10.2667 13.4668L13.8001 14.6668C13.8667 14.6668 13.9334 14.6668 14.0001 14.6668ZM7.66673 2.66683C8.46673 2.66683 9.20007 2.86683 9.86673 3.20016C11.6001 4.06683 12.6667 5.7335 12.6667 7.66683C12.6667 8.46683 12.4667 9.20016 12.1334 9.86683C12.0667 10.0002 12.0667 10.2002 12.0667 10.4002L12.9334 12.9335L10.4001 12.0668C10.2001 12.0002 10.0667 12.0002 9.86673 12.1335C9.20007 12.4668 8.40007 12.6668 7.66673 12.6668C5.7334 12.6668 4.06673 11.6002 3.20007 9.9335C2.86673 9.26683 2.66673 8.46683 2.66673 7.7335V7.3335C2.80007 4.80016 4.80007 2.80016 7.40007 2.66683H7.66673Z" fill="#B0B8BF"/>
</svg>
