<svg width="14" height="14" viewBox="0 0 14 14" fill="none" xmlns="http://www.w3.org/2000/svg">
<path fill-rule="evenodd" clip-rule="evenodd" d="M2.33333 1.5C1.8731 1.5 1.5 1.8731 1.5 2.33333V11.6667C1.5 12.0629 1.77652 12.3945 2.14711 12.4791L9.31313 5.3131C9.50839 5.11784 9.82497 5.11784 10.0202 5.3131L12.5 7.79287V2.33333C12.5 1.8731 12.1269 1.5 11.6667 1.5H2.33333ZM13.5 8.9966V2.33333C13.5 1.32081 12.6792 0.5 11.6667 0.5H2.33333C1.32081 0.5 0.5 1.32081 0.5 2.33333V11.6667C0.5 12.6792 1.32081 13.5 2.33333 13.5H11.6667C12.6792 13.5 13.5 12.6792 13.5 11.6667V9.00338C13.5 9.00112 13.5 8.99886 13.5 8.9966ZM12.5 9.20708L9.66668 6.37376L3.54044 12.5H11.6667C12.1269 12.5 12.5 12.1269 12.5 11.6667V9.20708ZM4.66666 4.16666C4.39051 4.16666 4.16666 4.39051 4.16666 4.66666C4.16666 4.9428 4.39051 5.16666 4.66666 5.16666C4.9428 5.16666 5.16666 4.9428 5.16666 4.66666C5.16666 4.39051 4.9428 4.16666 4.66666 4.16666ZM3.16666 4.66666C3.16666 3.83823 3.83823 3.16666 4.66666 3.16666C5.49508 3.16666 6.16666 3.83823 6.16666 4.66666C6.16666 5.49508 5.49508 6.16666 4.66666 6.16666C3.83823 6.16666 3.16666 5.49508 3.16666 4.66666Z" fill="#B0B8BF"/>
</svg>
