<svg width="16" height="16" viewBox="0 0 16 16" fill="none" xmlns="http://www.w3.org/2000/svg">
<path fill-rule="evenodd" clip-rule="evenodd" d="M7.99998 0.25C8.4142 0.25 8.74998 0.585786 8.74998 1V7.24998H15C15.4142 7.24998 15.75 7.58577 15.75 7.99998C15.75 8.4142 15.4142 8.74998 15 8.74998H8.74998V15C8.74998 15.4142 8.4142 15.75 7.99998 15.75C7.58577 15.75 7.24998 15.4142 7.24998 15V8.74998H1C0.585786 8.74998 0.25 8.4142 0.25 7.99998C0.25 7.58577 0.585786 7.24998 1 7.24998H7.24998V1C7.24998 0.585786 7.58577 0.25 7.99998 0.25Z" fill="#319CFF"/>
</svg>
