<svg width="18" height="18" viewBox="0 0 18 18" fill="none" xmlns="http://www.w3.org/2000/svg">
<path fill-rule="evenodd" clip-rule="evenodd" d="M3.37434 0.666504C3.37434 0.321326 3.65416 0.0415039 3.99934 0.0415039H13.9993C14.3445 0.0415039 14.6243 0.321326 14.6243 0.666504V5.87482H15.666C16.2738 5.87482 16.8567 6.11627 17.2865 6.54604C17.7162 6.97581 17.9577 7.5587 17.9577 8.16649V12.3332C17.9577 12.9409 17.7162 13.5238 17.2865 13.9536C16.8567 14.3834 16.2738 14.6248 15.666 14.6248H14.6243V17.3332C14.6243 17.6783 14.3445 17.9582 13.9993 17.9582H3.99934C3.65416 17.9582 3.37434 17.6783 3.37434 17.3332V14.6248H2.33268C1.72489 14.6248 1.142 14.3834 0.712229 13.9536C0.282458 13.5238 0.0410156 12.9409 0.0410156 12.3332V8.16649C0.0410156 7.5587 0.282458 6.97581 0.712229 6.54604C1.142 6.11627 1.72489 5.87482 2.33268 5.87482H3.37434V0.666504ZM3.99518 7.12482C3.99657 7.12483 3.99795 7.12484 3.99934 7.12484C4.00072 7.12484 4.00211 7.12483 4.00349 7.12482H13.9952C13.9966 7.12483 13.998 7.12484 13.9993 7.12484C14.0007 7.12484 14.0021 7.12483 14.0035 7.12482H15.666C15.9423 7.12482 16.2072 7.23457 16.4026 7.42992C16.5979 7.62527 16.7077 7.89022 16.7077 8.16649V12.3332C16.7077 12.6094 16.5979 12.8744 16.4026 13.0697C16.2072 13.2651 15.9423 13.3748 15.666 13.3748H14.6243V10.6665C14.6243 10.3213 14.3445 10.0415 13.9993 10.0415H3.99934C3.65416 10.0415 3.37434 10.3213 3.37434 10.6665V13.3748H2.33268C2.05642 13.3748 1.79146 13.2651 1.59611 13.0697C1.40076 12.8744 1.29102 12.6094 1.29102 12.3332V8.16649C1.29102 7.89022 1.40076 7.62527 1.59611 7.42992C1.79146 7.23457 2.05642 7.12482 2.33268 7.12482H3.99518ZM4.62434 14.004C4.62434 14.0026 4.62435 14.0012 4.62435 13.9998C4.62435 13.9984 4.62434 13.9971 4.62434 13.9957V11.2915H13.3743V16.7082H4.62434V14.004ZM13.3743 5.87482H4.62434V1.2915H13.3743V5.87482Z" fill="white"/>
</svg>
