<svg width="6" height="8" viewBox="0 0 6 8" fill="none" xmlns="http://www.w3.org/2000/svg">
<g opacity="0.8">
<path d="M2.65245 5.58824V5.2451C2.65245 4.93137 2.71378 4.63725 2.83645 4.36275C2.96593 4.0817 3.184 3.77124 3.49065 3.43137C3.72917 3.16993 3.89613 2.94771 3.99153 2.76471C4.08694 2.57516 4.13464 2.37582 4.13464 2.16667C4.13464 1.9183 4.04264 1.72222 3.85864 1.57843C3.67465 1.43464 3.41569 1.36275 3.08178 1.36275C2.37987 1.36275 1.74611 1.61438 1.18049 2.11765L0.8125 1.34314C1.08509 1.08824 1.42923 0.885621 1.84492 0.735294C2.26743 0.578431 2.70016 0.5 3.14311 0.5C3.75643 0.5 4.25049 0.647059 4.62529 0.941177C5.0001 1.22876 5.1875 1.60784 5.1875 2.07843C5.1875 2.38562 5.11595 2.6732 4.97284 2.94118C4.83655 3.20261 4.59463 3.49673 4.24708 3.82353C3.92679 4.13072 3.70191 4.40196 3.57243 4.63725C3.44295 4.86601 3.36458 5.09477 3.33732 5.32353L3.29644 5.58824H2.65245ZM2.36624 7.5V6.33333H3.58265V7.5H2.36624Z" fill="white"/>
</g>
</svg>
