<svg width="12" height="6" viewBox="0 0 12 6" fill="none" xmlns="http://www.w3.org/2000/svg">
<path fill-rule="evenodd" clip-rule="evenodd" d="M0.4 0.200195C0.293913 0.200195 0.192172 0.242338 0.117157 0.317353C0.0421427 0.392367 0 0.494109 0 0.600195L0 5.4002C0 5.50628 0.0421427 5.60802 0.117157 5.68304C0.192172 5.75805 0.293913 5.8002 0.4 5.8002H11.6C11.7061 5.8002 11.8078 5.75805 11.8828 5.68304C11.9579 5.60802 12 5.50628 12 5.4002V0.600195C12 0.494109 11.9579 0.392367 11.8828 0.317353C11.8078 0.242338 11.7061 0.200195 11.6 0.200195H0.4ZM0.8 5.0002V1.0002H1.66V3.0002C1.66 3.09037 1.69582 3.17685 1.75958 3.24061C1.82335 3.30437 1.90983 3.3402 2 3.3402C2.09017 3.3402 2.17665 3.30437 2.24042 3.24061C2.30418 3.17685 2.34 3.09037 2.34 3.0002V1.0002H3.26V2.2002C3.26 2.29037 3.29582 2.37685 3.35958 2.44061C3.42335 2.50437 3.50983 2.5402 3.6 2.5402C3.69017 2.5402 3.77665 2.50437 3.84042 2.44061C3.90418 2.37685 3.94 2.29037 3.94 2.2002V1.0002H4.86V2.2002C4.86 2.29037 4.89582 2.37685 4.95958 2.44061C5.02335 2.50437 5.10983 2.5402 5.2 2.5402C5.29017 2.5402 5.37665 2.50437 5.44042 2.44061C5.50418 2.37685 5.54 2.29037 5.54 2.2002V1.0002H6.46V3.0002C6.46 3.09037 6.49582 3.17685 6.55958 3.24061C6.62335 3.30437 6.70983 3.3402 6.8 3.3402C6.89017 3.3402 6.97665 3.30437 7.04042 3.24061C7.10418 3.17685 7.14 3.09037 7.14 3.0002V1.0002H8.06V2.2002C8.06 2.29037 8.09582 2.37685 8.15958 2.44061C8.22335 2.50437 8.30983 2.5402 8.4 2.5402C8.49017 2.5402 8.57665 2.50437 8.64042 2.44061C8.70418 2.37685 8.74 2.29037 8.74 2.2002V1.0002H9.66V2.2002C9.66 2.29037 9.69582 2.37685 9.75958 2.44061C9.82335 2.50437 9.90983 2.5402 10 2.5402C10.0902 2.5402 10.1767 2.50437 10.2404 2.44061C10.3042 2.37685 10.34 2.29037 10.34 2.2002V1.0002H11.2V5.0002H0.8Z" fill="#319CFF"/>
</svg>
