<svg width="16" height="16" viewBox="0 0 16 16" fill="none" xmlns="http://www.w3.org/2000/svg">
<g opacity="0.8">
<path d="M15 3.65912C14.4794 3.8875 13.9246 4.03887 13.3462 4.11237C13.9412 3.75712 14.3954 3.19887 14.6089 2.526C14.0541 2.85675 13.4416 3.09037 12.7889 3.22075C12.2621 2.65987 11.5114 2.3125 10.6924 2.3125C9.10337 2.3125 7.82412 3.60225 7.82412 5.18337C7.82412 5.41087 7.84338 5.62962 7.89062 5.83787C5.5045 5.7215 3.39313 4.57787 1.97475 2.83575C1.72712 3.26537 1.58188 3.75712 1.58188 4.2865C1.58188 5.2805 2.09375 6.16162 2.85675 6.67175C2.39562 6.663 1.94325 6.52912 1.56 6.31825C1.56 6.327 1.56 6.33837 1.56 6.34975C1.56 7.7445 2.55487 8.903 3.8595 9.16987C3.62587 9.23375 3.37125 9.26437 3.107 9.26437C2.92325 9.26437 2.73775 9.25387 2.56362 9.21537C2.9355 10.352 3.99075 11.1876 5.2455 11.2147C4.269 11.9786 3.02912 12.4389 1.68688 12.4389C1.4515 12.4389 1.22575 12.4284 1 12.3995C2.27137 13.2194 3.77813 13.6875 5.403 13.6875C10.6845 13.6875 13.572 9.3125 13.572 5.52025C13.572 5.39337 13.5676 5.27087 13.5615 5.14925C14.1311 4.745 14.6097 4.24012 15 3.65912Z" fill="#64707B"/>
</g>
</svg>
