<svg width="16" height="16" viewBox="0 0 16 16" fill="none" xmlns="http://www.w3.org/2000/svg">
<path d="M2.66683 8C2.66683 6.46667 3.3335 5.13333 4.3335 4.13333L4.5335 1.8C4.66683 0.8 5.46683 0 6.5335 0H9.46683C10.4668 0 11.3335 0.8 11.4668 1.8L11.6668 4.13333C12.6668 5.06667 13.3335 6.46667 13.3335 8C13.3335 9.53333 12.6668 10.9333 11.6668 11.8667L11.4668 14.2C11.3335 15.2 10.4668 16 9.46683 16H6.60016C5.5335 16 4.7335 15.2 4.60016 14.2L4.40016 11.9333C3.3335 10.9333 2.66683 9.53333 2.66683 8ZM10.1335 1.93333C10.1335 1.6 9.80016 1.33333 9.46683 1.33333H6.5335C6.20016 1.33333 5.86683 1.6 5.86683 1.93333L5.7335 3.13333C6.46683 2.86667 7.20016 2.66667 8.00016 2.66667C8.80016 2.66667 9.5335 2.86667 10.2002 3.13333L10.1335 1.93333ZM12.0002 8C12.0002 5.8 10.2002 4 8.00016 4C5.80016 4 4.00016 5.8 4.00016 8C4.00016 10.2 5.80016 12 8.00016 12C10.2002 12 12.0002 10.2 12.0002 8ZM5.86683 14.0667C5.86683 14.4 6.20016 14.6667 6.5335 14.6667H9.46683C9.80016 14.6667 10.0668 14.4 10.1335 14.0667L10.2668 12.8667C9.60016 13.2 8.86683 13.3333 8.06683 13.3333C7.26683 13.3333 6.5335 13.1333 5.86683 12.8667V14.0667Z" fill="#B0B8BF"/>
<path d="M7.46683 9.46667C7.3335 9.6 7.1335 9.66667 7.00016 9.66667C6.86683 9.66667 6.66683 9.6 6.5335 9.46667C6.26683 9.2 6.26683 8.8 6.5335 8.53333L7.3335 7.73333V6C7.3335 5.6 7.60016 5.33333 8.00016 5.33333C8.40016 5.33333 8.66683 5.6 8.66683 6V8C8.66683 8.2 8.60016 8.33333 8.46683 8.46667L7.46683 9.46667Z" fill="#B0B8BF"/>
</svg>
