<svg width="473" height="135" viewBox="0 0 473 135" fill="none" xmlns="http://www.w3.org/2000/svg">
<path d="M0 148C7.83333 126.667 41.2211 78.9062 102.5 98.0001C171.5 119.5 226.42 122 229.5 83.4998C230.66 68.9998 218.5 48.9999 196 45.9999C171.309 42.7077 164.5 75.5001 188.5 80.4998C212.5 85.4995 238.713 58.9756 260.5 24.4997C306 -47.5001 375 64 484.5 50.9999" stroke="#319CFF" stroke-dasharray="4 4"/>
<circle cx="255.5" cy="31.5" r="11.5" fill="#F0F4F8"/>
<circle cx="149.5" cy="110.5" r="11.5" fill="#F0F4F8"/>
<path d="M148.192 112.517L148.35 111.774C148.494 111.094 148.756 110.484 149.137 109.944C149.534 109.392 150.13 108.816 150.922 108.215C151.538 107.754 151.986 107.346 152.268 106.992C152.553 106.624 152.744 106.213 152.84 105.76C152.954 105.222 152.853 104.757 152.536 104.365C152.22 103.973 151.715 103.703 151.022 103.556C149.564 103.247 148.133 103.513 146.727 104.354L146.318 102.515C147.001 102.083 147.809 101.796 148.741 101.654C149.691 101.5 150.625 101.52 151.545 101.715C152.819 101.985 153.777 102.521 154.421 103.322C155.067 104.11 155.283 105.013 155.067 106.032C154.926 106.697 154.645 107.288 154.225 107.806C153.822 108.312 153.185 108.842 152.313 109.397C151.507 109.921 150.916 110.41 150.539 110.862C150.165 111.301 149.898 111.761 149.736 112.245L149.53 112.8L148.192 112.517ZM146.721 116.53L147.256 114.004L149.782 114.539L149.247 117.065L146.721 116.53Z" fill="#319CFF"/>
<path d="M256.612 34.1057L256.027 33.622C255.491 33.1798 255.073 32.6648 254.77 32.0771C254.465 31.4691 254.23 30.6746 254.065 29.6936C253.942 28.9347 253.788 28.3482 253.605 27.9341C253.41 27.5108 253.135 27.1517 252.778 26.8569C252.354 26.5068 251.895 26.381 251.401 26.4794C250.907 26.5778 250.434 26.9003 249.983 27.4468C249.034 28.5955 248.606 29.9874 248.7 31.6225L246.881 31.133C246.815 30.3275 246.934 29.4787 247.24 28.5865C247.543 27.6739 247.994 26.8552 248.593 26.1303C249.422 25.1265 250.341 24.5252 251.35 24.3264C252.347 24.1184 253.248 24.3461 254.051 25.0094C254.575 25.4425 254.969 25.965 255.233 26.5769C255.494 27.1685 255.669 27.979 255.757 29.0084C255.848 29.9656 256.007 30.716 256.233 31.2596C256.449 31.794 256.733 32.2447 257.087 32.6118L257.483 33.0518L256.612 34.1057ZM259.488 37.269L257.497 35.6245L259.141 33.6337L261.132 35.2783L259.488 37.269Z" fill="#319CFF"/>
</svg>
