<svg width="40" height="37" viewBox="0 0 40 37" fill="none" xmlns="http://www.w3.org/2000/svg">
<g clip-path="url(#clip0_117_4938)">
<path d="M20 0L40 7.92857V10.5714H37.3333C37.3333 10.9293 37.191 11.239 36.9062 11.5006C36.6215 11.7621 36.2847 11.8929 35.8958 11.8929H4.10417C3.71528 11.8929 3.37847 11.7621 3.09375 11.5006C2.80903 11.239 2.66667 10.9293 2.66667 10.5714H0V7.92857L20 0ZM5.33333 13.2143H10.6667V29.0714H13.3333V13.2143H18.6667V29.0714H21.3333V13.2143H26.6667V29.0714H29.3333V13.2143H34.6667V29.0714H35.8958C36.2847 29.0714 36.6215 29.2022 36.9062 29.4637C37.191 29.7253 37.3333 30.035 37.3333 30.3929V31.7143H2.66667V30.3929C2.66667 30.035 2.80903 29.7253 3.09375 29.4637C3.37847 29.2022 3.71528 29.0714 4.10417 29.0714H5.33333V13.2143ZM38.5625 33.0357C38.9514 33.0357 39.2882 33.1665 39.5729 33.428C39.8576 33.6895 40 33.9993 40 34.3571V37H0V34.3571C0 33.9993 0.142361 33.6895 0.427083 33.428C0.711806 33.1665 1.04861 33.0357 1.4375 33.0357H38.5625Z" fill="#C1E1FF"/>
</g>
<defs>
<clipPath id="clip0_117_4938">
<rect width="40" height="37" fill="white"/>
</clipPath>
</defs>
</svg>
