<svg width="42" height="42" viewBox="0 0 42 42" fill="none" xmlns="http://www.w3.org/2000/svg">
<g clip-path="url(#clip0_117_4943)">
<path fill-rule="evenodd" clip-rule="evenodd" d="M36.2406 8C37.7646 8 39 9.24365 39 10.7778V16.9533C38.1509 16.5793 37.2518 16.3064 36.3187 16.1507C36.3279 16.0585 36.3326 15.965 36.3326 15.8704V15.6852C36.3326 14.1511 35.0971 12.9074 33.5731 12.9074H5.42689C3.9029 12.9074 2.66746 14.1511 2.66746 15.6852V15.8704C2.66746 17.4045 3.9029 18.6481 5.42689 18.6481H27.2595C24.6761 20.7849 23 24.0096 23 27.55C23 29.2435 23.448 31.1042 24.1672 33H2.75943C1.23544 33 0 31.7563 0 30.2222V10.7778C0 9.24365 1.23544 8 2.75943 8H36.2406ZM7.40449 29.5976C7.90708 30.044 8.56717 30.3148 9.2901 30.3148C10.8649 30.3148 12.1415 29.0297 12.1415 27.4444C12.1415 25.8592 10.8649 24.5741 9.2901 24.5741C8.56717 24.5741 7.90708 24.8449 7.40449 25.2912C6.90189 24.8449 6.2418 24.5741 5.51887 24.5741C3.94408 24.5741 2.66746 25.8592 2.66746 27.4444C2.66746 29.0297 3.94408 30.3148 5.51887 30.3148C6.2418 30.3148 6.90189 30.044 7.40449 29.5976ZM9.2901 29.3889C10.3569 29.3889 11.2217 28.5183 11.2217 27.4444C11.2217 26.3706 10.3569 25.5 9.2901 25.5C8.78848 25.5 8.33152 25.6925 7.98813 26.0081C8.23117 26.4305 8.37028 26.9211 8.37028 27.4444C8.37028 27.9678 8.23117 28.4584 7.98813 28.8808C8.33152 29.1964 8.78848 29.3889 9.2901 29.3889Z" fill="#C1E1FF"/>
<path fill-rule="evenodd" clip-rule="evenodd" d="M34.6321 20.375C30.6321 20.375 27.2637 23.675 27.2637 27.5938C27.2637 32.9562 34.6321 41 34.6321 41C34.6321 41 42.0005 32.9562 42.0005 27.5938C42.0005 23.675 38.6321 20.375 34.6321 20.375ZM34.7005 30.4C36.1917 30.4 37.4005 29.1912 37.4005 27.7C37.4005 26.2088 36.1917 25 34.7005 25C33.2093 25 32.0005 26.2088 32.0005 27.7C32.0005 29.1912 33.2093 30.4 34.7005 30.4Z" fill="#C1E1FF"/>
</g>
<defs>
<clipPath id="clip0_117_4943">
<rect width="42" height="42" fill="white"/>
</clipPath>
</defs>
</svg>
