<svg width="42" height="42" viewBox="0 0 42 42" fill="none" xmlns="http://www.w3.org/2000/svg">
<path d="M34.6316 30.275C33.1579 30.275 32.1053 29.0375 32.1053 27.8C32.1053 26.3563 33.3684 25.325 34.6316 25.325C35.8947 25.325 37.1579 26.5625 37.1579 27.8C37.3684 29.0375 36.1053 30.275 34.6316 30.275ZM34.6316 20.375C30.6316 20.375 27.2632 23.675 27.2632 27.5938C27.2632 32.9562 34.6316 41 34.6316 41C34.6316 41 42 32.9562 42 27.5938C42 23.675 38.6316 20.375 34.6316 20.375ZM27.0526 18.9313C26.4211 16.25 23.8947 14.1875 20.9474 14.1875C17.3684 14.1875 14.6316 16.8687 14.6316 20.375C14.6316 23.8813 17.3684 26.5625 20.9474 26.5625C21.7895 26.5625 22.4211 26.3563 23.0526 26.15C23.4737 23.2625 24.9474 20.7875 27.0526 18.9313ZM23.0526 28.625H10.4211C10.4211 27.531 9.97745 26.4818 9.18782 25.7082C8.39819 24.9346 7.32723 24.5 6.21053 24.5V16.25C7.32723 16.25 8.39819 15.8154 9.18782 15.0418C9.97745 14.2682 10.4211 13.219 10.4211 12.125H31.4737C31.4737 13.219 31.9173 14.2682 32.7069 15.0418C33.4965 15.8154 34.5675 16.25 35.6842 16.25C35.6842 16.25 37.7895 16.25 39.8947 17.4875V8H2V32.75H24.1053C23.6842 31.3062 23.2632 30.0688 23.0526 28.625Z" fill="#C1E1FF"/>
</svg>
