<svg width="42" height="42" viewBox="0 0 42 42" fill="none" xmlns="http://www.w3.org/2000/svg">
<g clip-path="url(#clip0_117_7270)">
<path fill-rule="evenodd" clip-rule="evenodd" d="M17.1848 3.50248C17.1848 2.59367 17.9215 1.85693 18.8303 1.85693H40.3545C41.2633 1.85693 42 2.59367 42 3.50248V38.4977C42 39.4066 41.2633 40.1433 40.3545 40.1433H18.8303C17.9215 40.1433 17.1848 39.4066 17.1848 38.4977V31.1475H20.2788V33.945C20.2788 34.2479 20.5244 34.4935 20.8273 34.4935H38.3578C38.6608 34.4935 38.9064 34.2479 38.9064 33.945V5.49917C38.9064 5.19624 38.6608 4.95066 38.3578 4.95066H20.8273C20.5244 4.95066 20.2788 5.19624 20.2788 5.49917V6.68376H17.1848V3.50248ZM27.2614 38.0588C26.9585 38.0588 26.7129 37.8132 26.7129 37.5103V36.8521C26.7129 36.5491 26.9585 36.3036 27.2614 36.3036H31.9238C32.2267 36.3036 32.4723 36.5491 32.4723 36.8521V37.5103C32.4723 37.8132 32.2267 38.0588 31.9238 38.0588H27.2614ZM1.64555 8.43911C0.736736 8.43911 0 9.17585 0 10.0847V27.7468C0 28.6557 0.736736 29.3924 1.64555 29.3924H24.9757L27.1455 31.7595C27.5174 32.1651 28.1937 31.902 28.1937 31.3518V10.0847C28.1937 9.17585 27.4569 8.43911 26.5481 8.43911H1.64555ZM14.0968 11.3463L22.0503 14.5081V15.562H20.9898C20.9898 15.7047 20.9332 15.8282 20.82 15.9325C20.7068 16.0368 20.5728 16.089 20.4182 16.089H7.77549C7.62084 16.089 7.4869 16.0368 7.37367 15.9325C7.26045 15.8282 7.20383 15.7047 7.20383 15.562H6.14337V14.5081L14.0968 11.3463ZM8.26429 16.6159H10.3852V22.9395H11.4457V16.6159H13.5666V22.9395H14.6271V16.6159H16.748V22.9395H17.8085V16.6159H19.9294V22.9395H20.4182C20.5728 22.9395 20.7068 22.9917 20.82 23.096C20.9332 23.2003 20.9898 23.3238 20.9898 23.4665V23.9935H7.20383V23.4665C7.20383 23.3238 7.26045 23.2003 7.37367 23.096C7.4869 22.9917 7.62084 22.9395 7.77549 22.9395H8.26429V16.6159ZM21.4787 24.5204C21.6333 24.5204 21.7672 24.5726 21.8805 24.6769C21.9937 24.7812 22.0503 24.9047 22.0503 25.0474V26.1013H6.14337V25.0474C6.14337 24.9047 6.19998 24.7812 6.31321 24.6769C6.42644 24.5726 6.56037 24.5204 6.71502 24.5204H21.4787Z" fill="#C1E1FF"/>
</g>
<defs>
<clipPath id="clip0_117_7270">
<rect width="42" height="42" fill="white"/>
</clipPath>
</defs>
</svg>
