<svg width="42" height="42" viewBox="0 0 42 42" fill="none" xmlns="http://www.w3.org/2000/svg">
<path d="M3.16717 9.3125C4.67298 7.98065 6.61471 7.24688 8.625 7.25H33.375C35.4668 7.25 37.3772 8.02917 38.8328 9.3125C38.6654 7.98322 38.0184 6.76078 37.0135 5.87468C36.0086 4.98858 34.7148 4.49976 33.375 4.5H8.625C7.28521 4.49976 5.99141 4.98858 4.98648 5.87468C3.98156 6.76078 3.33464 7.98322 3.16717 9.3125ZM3.16717 14.8125C4.67298 13.4807 6.61471 12.7469 8.625 12.75H33.375C35.4668 12.75 37.3772 13.5292 38.8328 14.8125C38.6654 13.4832 38.0184 12.2608 37.0135 11.3747C36.0086 10.4886 34.7148 9.99976 33.375 10H8.625C7.28521 9.99976 5.99141 10.4886 4.98648 11.3747C3.98156 12.2608 3.33464 13.4832 3.16717 14.8125ZM8.625 15.5C7.16631 15.5 5.76736 16.0795 4.73591 17.1109C3.70446 18.1424 3.125 19.5413 3.125 21V32C3.125 33.4587 3.70446 34.8576 4.73591 35.8891C5.76736 36.9205 7.16631 37.5 8.625 37.5H33.375C34.8337 37.5 36.2326 36.9205 37.2641 35.8891C38.2955 34.8576 38.875 33.4587 38.875 32V21C38.875 19.5413 38.2955 18.1424 37.2641 17.1109C36.2326 16.0795 34.8337 15.5 33.375 15.5H26.5C26.1353 15.5 25.7856 15.6449 25.5277 15.9027C25.2699 16.1606 25.125 16.5103 25.125 16.875C25.125 17.969 24.6904 19.0182 23.9168 19.7918C23.1432 20.5654 22.094 21 21 21C19.906 21 18.8568 20.5654 18.0832 19.7918C17.3096 19.0182 16.875 17.969 16.875 16.875C16.875 16.5103 16.7301 16.1606 16.4723 15.9027C16.2144 15.6449 15.8647 15.5 15.5 15.5H8.625Z" fill="#C1E1FF"/>
</svg>
