<svg width="42" height="42" viewBox="0 0 42 42" fill="none" xmlns="http://www.w3.org/2000/svg">
<g clip-path="url(#clip0_117_7233)">
<path fill-rule="evenodd" clip-rule="evenodd" d="M0 6.67188C0 5.76578 0.734533 5.03125 1.64062 5.03125H32.7031C33.6092 5.03125 34.3438 5.76578 34.3438 6.67188V20.4531H31.7188V10.3906C31.7188 10.0886 31.4739 9.84375 31.1719 9.84375H3.17188C2.86984 9.84375 2.625 10.0886 2.625 10.3906V28.1094C2.625 28.4114 2.86984 28.6562 3.17187 28.6562H17.0625V31.2812H1.64062C0.734532 31.2812 0 30.5467 0 29.6406V6.67188ZM17.0625 21.7656V22.9688C16.9627 23.1016 16.8039 23.1875 16.625 23.1875H5.41406C5.11203 23.1875 4.86719 22.9427 4.86719 22.6406V22.0938C4.86719 21.7917 5.11203 21.5469 5.41406 21.5469H16.625C16.8039 21.5469 16.9627 21.6328 17.0625 21.7656ZM5.41406 12.0859C5.11203 12.0859 4.86719 12.3308 4.86719 12.6328V19.25C4.86719 19.552 5.11203 19.7969 5.41406 19.7969H16.625C16.927 19.7969 17.1719 19.552 17.1719 19.25V12.6328C17.1719 12.3308 16.927 12.0859 16.625 12.0859H5.41406ZM18.8125 13.8359C18.8125 13.5339 19.0573 13.2891 19.3594 13.2891H29.1484C29.4505 13.2891 29.6953 13.5339 29.6953 13.8359V14.3828C29.6953 14.6848 29.4505 14.9297 29.1484 14.9297H19.3594C19.0573 14.9297 18.8125 14.6848 18.8125 14.3828V13.8359ZM5.41406 24.8281C5.11203 24.8281 4.86719 25.073 4.86719 25.375V25.9219C4.86719 26.2239 5.11203 26.4688 5.41406 26.4688H12.6328C12.9348 26.4688 13.1797 26.2239 13.1797 25.9219V25.375C13.1797 25.073 12.9348 24.8281 12.6328 24.8281H5.41406ZM18.8125 17.1719C18.8125 16.8698 19.0573 16.625 19.3594 16.625H25.5391C25.8411 16.625 26.0859 16.8698 26.0859 17.1719V17.7188C26.0859 18.0208 25.8411 18.2656 25.5391 18.2656H19.3594C19.0573 18.2656 18.8125 18.0208 18.8125 17.7188V17.1719ZM4.32031 7.46484C4.32031 7.93299 3.9408 8.3125 3.47266 8.3125C3.00451 8.3125 2.625 7.93299 2.625 7.46484C2.625 6.9967 3.00451 6.61719 3.47266 6.61719C3.9408 6.61719 4.32031 6.9967 4.32031 7.46484ZM6.64453 8.3125C7.11268 8.3125 7.49219 7.93299 7.49219 7.46484C7.49219 6.9967 7.11268 6.61719 6.64453 6.61719C6.17638 6.61719 5.79688 6.9967 5.79688 7.46484C5.79688 7.93299 6.17638 8.3125 6.64453 8.3125ZM10.6641 7.46484C10.6641 7.93299 10.2846 8.3125 9.81641 8.3125C9.34826 8.3125 8.96875 7.93299 8.96875 7.46484C8.96875 6.9967 9.34826 6.61719 9.81641 6.61719C10.2846 6.61719 10.6641 6.9967 10.6641 7.46484ZM18.8125 23.8438C18.8125 22.9377 19.547 22.2031 20.4531 22.2031H40.3594C41.2655 22.2031 42 22.9377 42 23.8438V35.3281C42 36.2342 41.2655 36.9688 40.3594 36.9688H20.4531C19.547 36.9688 18.8125 36.2342 18.8125 35.3281V23.8438ZM22.0391 25.1016C21.133 25.1016 20.3984 25.8361 20.3984 26.7422V26.8516C20.3984 27.7577 21.133 28.4922 22.0391 28.4922H38.7734C39.6795 28.4922 40.4141 27.7577 40.4141 26.8516V26.7422C40.4141 25.8361 39.6795 25.1016 38.7734 25.1016H22.0391ZM35.3281 33.6875C35.3281 34.3218 35.8423 34.8359 36.4766 34.8359C36.7748 34.8359 37.0465 34.7223 37.2506 34.5359C37.1061 34.2863 37.0234 33.9966 37.0234 33.6875C37.0234 33.3784 37.1061 33.0887 37.2506 32.8391C37.0465 32.6527 36.7748 32.5391 36.4766 32.5391C35.8423 32.5391 35.3281 33.0532 35.3281 33.6875ZM36.4766 35.3828C36.9064 35.3828 37.2988 35.2229 37.5977 34.9592C37.8965 35.2229 38.2889 35.3828 38.7188 35.3828C39.655 35.3828 40.4141 34.6238 40.4141 33.6875C40.4141 32.7512 39.655 31.9922 38.7188 31.9922C38.2889 31.9922 37.8965 32.1521 37.5977 32.4158C37.2988 32.1521 36.9064 31.9922 36.4766 31.9922C35.5403 31.9922 34.7812 32.7512 34.7812 33.6875C34.7812 34.6238 35.5403 35.3828 36.4766 35.3828Z" fill="#C1E1FF"/>
</g>
<defs>
<clipPath id="clip0_117_7233">
<rect width="42" height="42" fill="white"/>
</clipPath>
</defs>
</svg>
