<svg width="68" height="128" viewBox="0 0 68 128" fill="none" xmlns="http://www.w3.org/2000/svg">
<g opacity="0.2">
<path d="M68 0L65.2445 4L68 8L64 5.24451L60 8L62.7555 4L60 -3.49691e-07L64 2.75549L68 0Z" fill="#319CFF"/>
<path d="M48 0L45.2445 4L48 8L44 5.24451L40 8L42.7555 4L40 -3.49691e-07L44 2.75549L48 0Z" fill="#319CFF"/>
<path d="M28 0L25.2445 4L28 8L24 5.24451L20 8L22.7555 4L20 -3.49691e-07L24 2.75549L28 0Z" fill="#319CFF"/>
<path d="M8 0L5.24451 4L8 8L4 5.24451L1.27146e-07 8L2.75549 4L4.76837e-07 -3.49691e-07L4 2.75549L8 0Z" fill="#319CFF"/>
<path d="M68 20L65.2445 24L68 28L64 25.2445L60 28L62.7555 24L60 20L64 22.7555L68 20Z" fill="#319CFF"/>
<path d="M48 20L45.2445 24L48 28L44 25.2445L40 28L42.7555 24L40 20L44 22.7555L48 20Z" fill="#319CFF"/>
<path d="M28 20L25.2445 24L28 28L24 25.2445L20 28L22.7555 24L20 20L24 22.7555L28 20Z" fill="#319CFF"/>
<path d="M8 20L5.24451 24L8 28L4 25.2445L1.27146e-07 28L2.75549 24L4.76837e-07 20L4 22.7555L8 20Z" fill="#319CFF"/>
<path d="M68 40L65.2445 44L68 48L64 45.2445L60 48L62.7555 44L60 40L64 42.7555L68 40Z" fill="#319CFF"/>
<path d="M48 40L45.2445 44L48 48L44 45.2445L40 48L42.7555 44L40 40L44 42.7555L48 40Z" fill="#319CFF"/>
<path d="M28 40L25.2445 44L28 48L24 45.2445L20 48L22.7555 44L20 40L24 42.7555L28 40Z" fill="#319CFF"/>
<path d="M8 40L5.24451 44L8 48L4 45.2445L1.27146e-07 48L2.75549 44L4.76837e-07 40L4 42.7555L8 40Z" fill="#319CFF"/>
<path d="M68 60L65.2445 64L68 68L64 65.2445L60 68L62.7555 64L60 60L64 62.7555L68 60Z" fill="#319CFF"/>
<path d="M48 60L45.2445 64L48 68L44 65.2445L40 68L42.7555 64L40 60L44 62.7555L48 60Z" fill="#319CFF"/>
<path d="M28 60L25.2445 64L28 68L24 65.2445L20 68L22.7555 64L20 60L24 62.7555L28 60Z" fill="#319CFF"/>
<path d="M8 60L5.24451 64L8 68L4 65.2445L1.27146e-07 68L2.75549 64L4.76837e-07 60L4 62.7555L8 60Z" fill="#319CFF"/>
<path d="M68 80L65.2445 84L68 88L64 85.2445L60 88L62.7555 84L60 80L64 82.7555L68 80Z" fill="#319CFF"/>
<path d="M48 80L45.2445 84L48 88L44 85.2445L40 88L42.7555 84L40 80L44 82.7555L48 80Z" fill="#319CFF"/>
<path d="M28 80L25.2445 84L28 88L24 85.2445L20 88L22.7555 84L20 80L24 82.7555L28 80Z" fill="#319CFF"/>
<path d="M8 80L5.24451 84L8 88L4 85.2445L1.27146e-07 88L2.75549 84L4.76837e-07 80L4 82.7555L8 80Z" fill="#319CFF"/>
<path d="M68 100L65.2445 104L68 108L64 105.245L60 108L62.7555 104L60 100L64 102.755L68 100Z" fill="#319CFF"/>
<path d="M48 100L45.2445 104L48 108L44 105.245L40 108L42.7555 104L40 100L44 102.755L48 100Z" fill="#319CFF"/>
<path d="M28 100L25.2445 104L28 108L24 105.245L20 108L22.7555 104L20 100L24 102.755L28 100Z" fill="#319CFF"/>
<path d="M8 100L5.24451 104L8 108L4 105.245L1.27146e-07 108L2.75549 104L4.76837e-07 100L4 102.755L8 100Z" fill="#319CFF"/>
<path d="M68 120L65.2445 124L68 128L64 125.245L60 128L62.7555 124L60 120L64 122.755L68 120Z" fill="#319CFF"/>
<path d="M48 120L45.2445 124L48 128L44 125.245L40 128L42.7555 124L40 120L44 122.755L48 120Z" fill="#319CFF"/>
<path d="M28 120L25.2445 124L28 128L24 125.245L20 128L22.7555 124L20 120L24 122.755L28 120Z" fill="#319CFF"/>
<path d="M8 120L5.24451 124L8 128L4 125.245L1.27146e-07 128L2.75549 124L4.76837e-07 120L4 122.755L8 120Z" fill="#319CFF"/>
</g>
</svg>
