<svg width="34" height="17" viewBox="0 0 34 17" fill="none" xmlns="http://www.w3.org/2000/svg">
<path d="M1.06619 0C0.477349 0 0 0.478689 0 1.06918V13.1509C0 13.7414 0.477349 14.2201 1.06619 14.2201H2.23933C2.23911 14.2023 2.23899 14.1845 2.23899 14.1667C2.23899 11.8933 4.07681 10.0503 6.34382 10.0503C8.61082 10.0503 10.4486 11.8933 10.4486 14.1667C10.4486 14.1845 10.4485 14.2023 10.4483 14.2201H23.5631C23.5629 14.2023 23.5627 14.1845 23.5627 14.1667C23.5627 11.8933 25.4006 10.0503 27.6676 10.0503C29.9346 10.0503 31.7724 11.8933 31.7724 14.1667C31.7724 14.1845 31.7723 14.2023 31.7721 14.2201H32.9337C33.5667 14.2201 34.0603 13.6703 33.994 13.039L33.4446 7.80455C33.4003 7.38257 33.1113 7.02679 32.7082 6.89786L27.348 5.18332C27.2418 5.14937 27.1417 5.09893 27.0511 5.03386L20.3228 0.20003C20.1417 0.0699503 19.9246 0 19.7018 0H1.06619Z" fill="#B0B8BF"/>
<path d="M9.16921 14.1667C9.16921 15.7315 7.90424 17 6.34382 17C4.78339 17 3.51842 15.7315 3.51842 14.1667C3.51842 12.6019 4.78339 11.3333 6.34382 11.3333C7.90424 11.3333 9.16921 12.6019 9.16921 14.1667Z" fill="#B0B8BF"/>
<path d="M27.6676 17C29.228 17 30.493 15.7315 30.493 14.1667C30.493 12.6019 29.228 11.3333 27.6676 11.3333C26.1071 11.3333 24.8422 12.6019 24.8422 14.1667C24.8422 15.7315 26.1071 17 27.6676 17Z" fill="#B0B8BF"/>
</svg>
