<svg width="13" height="12" viewBox="0 0 13 12" fill="none" xmlns="http://www.w3.org/2000/svg">
<path fill-rule="evenodd" clip-rule="evenodd" d="M5.30827 1.00043C5.30838 0.896155 5.27004 0.794464 5.1986 0.709583C5.12716 0.624703 5.02621 0.560881 4.90987 0.527049C4.79352 0.493217 4.66762 0.491069 4.54976 0.520904C4.43191 0.550739 4.32801 0.611065 4.2526 0.693439L0.124259 5.19326C0.0437247 5.28103 0 5.38905 0 5.50025C0 5.61144 0.0437247 5.71947 0.124259 5.80723L4.2526 10.3071C4.32801 10.3894 4.43191 10.4498 4.54976 10.4796C4.66762 10.5094 4.79352 10.5073 4.90987 10.4734C5.02621 10.4396 5.12716 10.3758 5.1986 10.2909C5.27004 10.206 5.30838 10.1043 5.30827 10.0001V8.00514C8.48061 8.06114 10.0046 8.57162 10.7701 9.1266C11.4978 9.65408 11.6311 10.2746 11.7697 10.9245L11.8057 11.092C11.8322 11.2119 11.9094 11.3194 12.0228 11.3944C12.1362 11.4693 12.2781 11.5065 12.4216 11.4991C12.5652 11.4916 12.7006 11.4398 12.8023 11.3537C12.904 11.2675 12.9651 11.1527 12.974 11.031C13.0749 9.65708 12.9233 7.66616 11.7786 6.00073C10.6674 4.38429 8.66638 3.14134 5.30827 3.01135V1.00043Z" fill="white"/>
</svg>
