<svg width="12" height="14" viewBox="0 0 12 14" fill="none" xmlns="http://www.w3.org/2000/svg">
<path d="M10.125 1.75H7.83333C7.83333 0.784766 7.0112 0 6 0C4.9888 0 4.16667 0.784766 4.16667 1.75H1.875C1.11589 1.75 0.5 2.33789 0.5 3.0625V12.6875C0.5 13.4121 1.11589 14 1.875 14H10.125C10.8841 14 11.5 13.4121 11.5 12.6875V3.0625C11.5 2.33789 10.8841 1.75 10.125 1.75ZM3.25 11.5938C2.86901 11.5938 2.5625 11.3012 2.5625 10.9375C2.5625 10.5738 2.86901 10.2812 3.25 10.2812C3.63099 10.2812 3.9375 10.5738 3.9375 10.9375C3.9375 11.3012 3.63099 11.5938 3.25 11.5938ZM3.25 8.96875C2.86901 8.96875 2.5625 8.67617 2.5625 8.3125C2.5625 7.94883 2.86901 7.65625 3.25 7.65625C3.63099 7.65625 3.9375 7.94883 3.9375 8.3125C3.9375 8.67617 3.63099 8.96875 3.25 8.96875ZM3.25 6.34375C2.86901 6.34375 2.5625 6.05117 2.5625 5.6875C2.5625 5.32383 2.86901 5.03125 3.25 5.03125C3.63099 5.03125 3.9375 5.32383 3.9375 5.6875C3.9375 6.05117 3.63099 6.34375 3.25 6.34375ZM6 1.09375C6.38099 1.09375 6.6875 1.38633 6.6875 1.75C6.6875 2.11367 6.38099 2.40625 6 2.40625C5.61901 2.40625 5.3125 2.11367 5.3125 1.75C5.3125 1.38633 5.61901 1.09375 6 1.09375ZM9.66667 11.1562C9.66667 11.2766 9.56354 11.375 9.4375 11.375H5.3125C5.18646 11.375 5.08333 11.2766 5.08333 11.1562V10.7188C5.08333 10.5984 5.18646 10.5 5.3125 10.5H9.4375C9.56354 10.5 9.66667 10.5984 9.66667 10.7188V11.1562ZM9.66667 8.53125C9.66667 8.65156 9.56354 8.75 9.4375 8.75H5.3125C5.18646 8.75 5.08333 8.65156 5.08333 8.53125V8.09375C5.08333 7.97344 5.18646 7.875 5.3125 7.875H9.4375C9.56354 7.875 9.66667 7.97344 9.66667 8.09375V8.53125ZM9.66667 5.90625C9.66667 6.02656 9.56354 6.125 9.4375 6.125H5.3125C5.18646 6.125 5.08333 6.02656 5.08333 5.90625V5.46875C5.08333 5.34844 5.18646 5.25 5.3125 5.25H9.4375C9.56354 5.25 9.66667 5.34844 9.66667 5.46875V5.90625Z" fill="white"/>
</svg>
