<svg width="4" height="12" viewBox="0 0 4 12" fill="none" xmlns="http://www.w3.org/2000/svg">
<path d="M3.06066 2.56066C3.34196 2.27935 3.5 1.89782 3.5 1.5C3.5 1.10217 3.34196 0.720645 3.06066 0.43934C2.77936 0.158036 2.39782 0 2 0C1.60218 0 1.22065 0.158036 0.939341 0.43934C0.658036 0.720645 0.5 1.10217 0.5 1.5C0.5 1.89782 0.658036 2.27935 0.939341 2.56066C1.22065 2.84196 1.60218 3 2 3C2.39782 3 2.77936 2.84196 3.06066 2.56066Z" fill="white"/>
<path d="M2.7955 4.8295C2.58452 4.61853 2.29837 4.5 2 4.5C1.70163 4.5 1.41548 4.61853 1.20451 4.8295C0.993528 5.04048 0.875 5.32663 0.875 5.625V10.875C0.875 11.1734 0.993528 11.4595 1.20451 11.6705C1.41548 11.8815 1.70163 12 2 12C2.29837 12 2.58452 11.8815 2.7955 11.6705C3.00647 11.4595 3.125 11.1734 3.125 10.875V5.625C3.125 5.32663 3.00647 5.04048 2.7955 4.8295Z" fill="white"/>
</svg>
