<svg width="62" height="32" viewBox="0 0 62 32" fill="none" xmlns="http://www.w3.org/2000/svg">
<path d="M0 1.06667C0 0.477563 0.488217 0 1.09046 0H38.5478C39.1501 0 39.6383 0.477563 39.6383 1.06667V6.72C39.6383 7.3091 40.1265 7.78666 40.7288 7.78666H46.9407C47.3736 7.78666 47.7655 8.03712 47.9394 8.42489L50.1302 13.311C50.2847 13.6555 50.6133 13.895 50.995 13.9411L59.6859 14.9924C60.1777 15.0519 60.5667 15.4283 60.6328 15.9087L61.9901 25.7778C62.0781 26.4176 61.5694 26.9867 60.9094 26.9867H59.5272C59.3308 23.9219 56.7505 21.4961 53.5962 21.4961C50.442 21.4961 47.8617 23.9219 47.6652 26.9867H24.4104C24.1857 23.9766 21.6179 21.6028 18.4833 21.6028C15.3488 21.6028 12.781 23.9766 12.5563 26.9867H1.09046C0.488216 26.9867 0 26.5091 0 25.92V1.06667Z" fill="#B0B8BF"/>
<path d="M23.1178 27.4161C23.1178 29.9198 21.0429 31.9495 18.4833 31.9495C15.9238 31.9495 13.8489 29.9198 13.8489 27.4161C13.8489 24.9124 15.9238 22.8828 18.4833 22.8828C21.0429 22.8828 23.1178 24.9124 23.1178 27.4161Z" fill="#B0B8BF"/>
<path d="M53.5962 32C56.1558 32 58.2307 29.9465 58.2307 27.4133C58.2307 24.8802 56.1558 22.8267 53.5962 22.8267C51.0367 22.8267 48.9618 24.8802 48.9618 27.4133C48.9618 29.9465 51.0367 32 53.5962 32Z" fill="#B0B8BF"/>
</svg>
