<svg width="10" height="14" viewBox="0 0 10 14" fill="none" xmlns="http://www.w3.org/2000/svg">
<path fill-rule="evenodd" clip-rule="evenodd" d="M4.61697 0.451713C2.07138 0.610088 0.741156 2.05165 0.625 4.65849H3.19291C3.22506 3.75549 3.72906 3.08043 4.6675 2.9809C5.58866 2.88312 6.46256 3.10253 6.72725 3.73231C7.01316 4.41262 6.37134 5.20318 6.06619 5.53502C5.50137 6.15037 4.58394 6.59924 4.10837 7.26315C3.64222 7.91371 3.55931 8.76968 3.52344 9.81728H5.78662C5.81834 9.14746 5.86297 8.50587 6.16769 8.08959C6.66337 7.41321 7.40363 7.09624 8.024 6.56206C8.61659 6.05149 9.24003 5.43615 9.34591 4.48371C9.66375 1.63318 7.33691 0.281963 4.61697 0.451713Z" fill="white"/>
<path d="M4.67497 13.5625C5.46411 13.5625 6.10384 12.9325 6.10384 12.1553C6.10384 11.3781 5.46411 10.748 4.67497 10.748C3.88582 10.748 3.24609 11.3781 3.24609 12.1553C3.24609 12.9325 3.88582 13.5625 4.67497 13.5625Z" fill="white"/>
</svg>
