<svg width="45" height="23" viewBox="0 0 45 23" fill="none" xmlns="http://www.w3.org/2000/svg">
<path d="M1.07138 0C0.479675 0 0 0.490355 0 1.09524V19.0571C0 19.662 0.479676 20.1524 1.07139 20.1524H8.35714C8.35691 20.1342 8.3568 20.1159 8.3568 20.0976C8.3568 17.7688 10.2036 15.881 12.4816 15.881C14.7597 15.881 16.6065 17.7688 16.6065 20.0976C16.6065 20.1159 16.6063 20.1342 16.6061 20.1524H34.4989C34.4987 20.1342 34.4986 20.1159 34.4986 20.0976C34.4986 17.7688 36.3453 15.881 38.6234 15.881C40.9015 15.881 42.7482 17.7688 42.7482 20.0976C42.7482 20.1159 42.7481 20.1342 42.7479 20.1524H43.9285C44.5598 20.1524 45.0543 19.5972 44.9952 18.9547L44.4216 12.7138C44.3814 12.2766 44.0897 11.9062 43.6805 11.7728L38.3595 10.0378C38.2156 9.99091 38.0831 9.91348 37.9706 9.81058L32.3395 4.65997C32.143 4.48029 31.8887 4.38095 31.6251 4.38095H25.5525C24.9608 4.38095 24.4811 3.8906 24.4811 3.28571V1.09524C24.4811 0.490355 24.0015 0 23.4098 0H1.07138Z" fill="#B0B8BF"/>
<path d="M15.3208 20.0976C15.3208 21.7006 14.0497 23 12.4816 23C10.9136 23 9.64246 21.7006 9.64246 20.0976C9.64246 18.4947 10.9136 17.1952 12.4816 17.1952C14.0497 17.1952 15.3208 18.4947 15.3208 20.0976Z" fill="#B0B8BF"/>
<path d="M38.6234 23C40.1914 23 41.4626 21.7006 41.4626 20.0976C41.4626 18.4947 40.1914 17.1952 38.6234 17.1952C37.0554 17.1952 35.7842 18.4947 35.7842 20.0976C35.7842 21.7006 37.0554 23 38.6234 23Z" fill="#B0B8BF"/>
</svg>
