<svg width="16" height="16" viewBox="0 0 16 16" fill="none" xmlns="http://www.w3.org/2000/svg">
<path d="M8.12399 9.70117C7.71266 9.70117 7.47266 10.0925 7.47266 10.6165C7.47266 11.1438 7.71999 11.5165 8.12799 11.5165C8.53932 11.5165 8.77532 11.1245 8.77532 10.6005C8.77532 10.1165 8.54332 9.70117 8.12399 9.70117Z" fill="white"/>
<path d="M9.33464 1.3335H4.0013C3.64768 1.3335 3.30854 1.47397 3.05849 1.72402C2.80844 1.97407 2.66797 2.31321 2.66797 2.66683V13.3335C2.66797 13.6871 2.80844 14.0263 3.05849 14.2763C3.30854 14.5264 3.64768 14.6668 4.0013 14.6668H12.0013C12.3549 14.6668 12.6941 14.5264 12.9441 14.2763C13.1942 14.0263 13.3346 13.6871 13.3346 13.3335V5.3335L9.33464 1.3335ZM6.10464 11.6362C5.82064 11.8722 5.3893 11.9835 4.86197 11.9835C4.5453 11.9835 4.32197 11.9635 4.16997 11.9435V9.29616C4.44262 9.2569 4.71785 9.2384 4.9933 9.24083C5.5053 9.24083 5.8373 9.33283 6.09664 9.52883C6.37664 9.73683 6.55264 10.0688 6.55264 10.5435C6.55264 11.0602 6.36464 11.4162 6.10464 11.6362V11.6362ZM8.09797 12.0002C7.29797 12.0002 6.83064 11.3962 6.83064 10.6282C6.83064 9.82083 7.34597 9.2175 8.14197 9.2175C8.9693 9.2175 9.4213 9.83683 9.4213 10.5808C9.42064 11.4642 8.88464 12.0002 8.09797 12.0002V12.0002ZM11.2013 11.4922C11.3846 11.4922 11.5886 11.4515 11.7093 11.4042L11.8013 11.8795C11.6893 11.9355 11.4373 11.9955 11.11 11.9955C10.1786 11.9955 9.69864 11.4162 9.69864 10.6482C9.69864 9.72883 10.354 9.2175 11.17 9.2175C11.486 9.2175 11.7253 9.2815 11.8333 9.3375L11.7093 9.8215C11.547 9.75442 11.3729 9.72042 11.1973 9.7215C10.7133 9.7215 10.3373 10.0135 10.3373 10.6135C10.3373 11.1528 10.6573 11.4922 11.2013 11.4922V11.4922ZM9.33464 6.00016H8.66797V2.66683L12.0013 6.00016H9.33464Z" fill="white"/>
<path d="M5.05658 9.7085C4.92125 9.7085 4.83325 9.7205 4.78125 9.7325V11.4958C4.83325 11.5078 4.91725 11.5078 4.99258 11.5078C5.54458 11.5118 5.90392 11.2085 5.90392 10.5645C5.90792 10.0045 5.58058 9.7085 5.05658 9.7085Z" fill="white"/>
</svg>
