<svg width="14" height="14" viewBox="0 0 14 14" fill="none" xmlns="http://www.w3.org/2000/svg">
<path d="M0 0.583333C0 0.261167 0.261167 0 0.583333 0H2.91667C3.1947 0 3.43409 0.196225 3.48866 0.46885L3.97858 2.91667H13.4167C13.5905 2.91667 13.7553 2.99421 13.8661 3.12816C13.9769 3.26211 14.0222 3.4385 13.9897 3.60927L13.0555 8.50781C12.9755 8.91066 12.7563 9.27252 12.4364 9.53007C12.118 9.78633 11.7201 9.92306 11.3116 9.91667H5.65171C5.24322 9.92306 4.84529 9.78633 4.52695 9.53007C4.20714 9.27263 3.98804 8.91095 3.90794 8.5083L2.93346 3.63953C2.92951 3.62343 2.92622 3.60706 2.92364 3.59046L2.43852 1.16667H0.583333C0.261167 1.16667 0 0.905499 0 0.583333Z" fill="white"/>
<path d="M4.08335 12.25C4.08335 11.6057 4.60569 11.0834 5.25002 11.0834C5.89435 11.0834 6.41669 11.6057 6.41669 12.25C6.41669 12.8944 5.89435 13.4167 5.25002 13.4167C4.60569 13.4167 4.08335 12.8944 4.08335 12.25Z" fill="white"/>
<path d="M10.5 12.25C10.5 11.6057 11.0223 11.0834 11.6667 11.0834C12.311 11.0834 12.8333 11.6057 12.8333 12.25C12.8333 12.8944 12.311 13.4167 11.6667 13.4167C11.0223 13.4167 10.5 12.8944 10.5 12.25Z" fill="white"/>
</svg>
