<svg width="14" height="14" viewBox="0 0 14 14" fill="none" xmlns="http://www.w3.org/2000/svg">
    <path
        d="M10.9375 5.49982C10.9374 4.26601 10.5176 3.06894 9.74719 2.10523C8.97678 1.14151 7.90152 0.468458 6.69804 0.196616C5.49455 -0.0752258 4.2344 0.070308 3.12456 0.609313C2.01471 1.14832 1.12118 2.04875 0.590717 3.1627C0.0602551 4.27665 -0.075592 5.53788 0.205489 6.73925C0.48657 7.94061 1.16787 9.01066 2.13747 9.77364C3.10708 10.5366 4.30734 10.9472 5.54111 10.9378C6.77488 10.9285 7.96879 10.4999 8.92675 9.72232L12.6018 13.3973L12.6655 13.4521C12.7797 13.5358 12.9212 13.5734 13.0619 13.5574C13.2025 13.5414 13.332 13.4729 13.4244 13.3656C13.5168 13.2584 13.5653 13.1202 13.5604 12.9787C13.5554 12.8372 13.4972 12.7028 13.3975 12.6023L9.7225 8.92657C10.5103 7.95848 10.9395 6.74796 10.9375 5.49982ZM6.25 3.24982C6.25 3.44873 6.17099 3.63949 6.03033 3.78015C5.88968 3.9208 5.69892 3.99982 5.5 3.99982C5.30109 3.99982 5.11033 3.9208 4.96968 3.78015C4.82902 3.63949 4.75 3.44873 4.75 3.24982C4.75 3.0509 4.82902 2.86014 4.96968 2.71949C5.11033 2.57884 5.30109 2.49982 5.5 2.49982C5.69892 2.49982 5.88968 2.57884 6.03033 2.71949C6.17099 2.86014 6.25 3.0509 6.25 3.24982ZM5.5 4.74982C5.64919 4.74982 5.79226 4.80908 5.89775 4.91457C6.00324 5.02006 6.0625 5.16313 6.0625 5.31232V7.93732C6.0625 8.0865 6.00324 8.22958 5.89775 8.33506C5.79226 8.44055 5.64919 8.49982 5.5 8.49982C5.35082 8.49982 5.20775 8.44055 5.10226 8.33506C4.99677 8.22958 4.9375 8.0865 4.9375 7.93732V5.31232C4.9375 5.16313 4.99677 5.02006 5.10226 4.91457C5.20775 4.80908 5.35082 4.74982 5.5 4.74982Z"
        fill="#fff" />
</svg>