<svg width="14" height="10" viewBox="0 0 14 10" fill="none" xmlns="http://www.w3.org/2000/svg">
<path d="M0.25 0.5H13.75V9.5H0.25V0.5ZM7 2.75C7.59674 2.75 8.16903 2.98705 8.59099 3.40901C9.01295 3.83097 9.25 4.40326 9.25 5C9.25 5.59674 9.01295 6.16903 8.59099 6.59099C8.16903 7.01295 7.59674 7.25 7 7.25C6.40326 7.25 5.83097 7.01295 5.40901 6.59099C4.98705 6.16903 4.75 5.59674 4.75 5C4.75 4.40326 4.98705 3.83097 5.40901 3.40901C5.83097 2.98705 6.40326 2.75 7 2.75ZM3.25 2C3.25 2.39782 3.09196 2.77936 2.81066 3.06066C2.52936 3.34196 2.14782 3.5 1.75 3.5V6.5C2.14782 6.5 2.52936 6.65804 2.81066 6.93934C3.09196 7.22064 3.25 7.60218 3.25 8H10.75C10.75 7.60218 10.908 7.22064 11.1893 6.93934C11.4706 6.65804 11.8522 6.5 12.25 6.5V3.5C11.8522 3.5 11.4706 3.34196 11.1893 3.06066C10.908 2.77936 10.75 2.39782 10.75 2H3.25Z" fill="white"/>
</svg>
