<svg width="10" height="11" viewBox="0 0 10 11" fill="none" xmlns="http://www.w3.org/2000/svg">
<path d="M1.25 0.5C0.918479 0.5 0.600537 0.637785 0.366117 0.883045C0.131696 1.1283 0 1.46095 0 1.8078L0 10.1731C1.31343e-05 10.2378 0.0183704 10.301 0.0527483 10.3548C0.0871262 10.4086 0.135979 10.4505 0.193125 10.4752C0.25027 10.4999 0.313138 10.5063 0.373773 10.4937C0.434407 10.481 0.490082 10.4497 0.53375 10.4039L2.31687 8.53837C2.43406 8.41574 2.593 8.34682 2.75875 8.34678H8.75C9.08152 8.34678 9.39946 8.209 9.63388 7.96374C9.8683 7.71848 10 7.38583 10 7.03898V1.8078C10 1.46095 9.8683 1.1283 9.63388 0.883045C9.39946 0.637785 9.08152 0.5 8.75 0.5H1.25Z" fill="white"/>
</svg>
