<svg width="14" height="11" viewBox="0 0 14 11" fill="none" xmlns="http://www.w3.org/2000/svg">
<path d="M1.27273 0C0.935179 0 0.611456 0.144866 0.372773 0.402728C0.134091 0.660591 0 1.01033 0 1.375V8.9375H1.27273C1.27273 9.48451 1.47386 10.0091 1.83189 10.3959C2.18991 10.7827 2.6755 11 3.18182 11C3.68814 11 4.17373 10.7827 4.53175 10.3959C4.88977 10.0091 5.09091 9.48451 5.09091 8.9375H8.90909C8.90909 9.48451 9.11023 10.0091 9.46825 10.3959C9.82627 10.7827 10.3119 11 10.8182 11C11.3245 11 11.8101 10.7827 12.1681 10.3959C12.5261 10.0091 12.7273 9.48451 12.7273 8.9375H14V5.5L12.0909 2.75H10.1818V0M10.1818 3.78125H11.7727L13.0264 5.5H10.1818M3.18182 7.90625C3.43498 7.90625 3.67777 8.0149 3.85678 8.2083C4.0358 8.40169 4.13636 8.664 4.13636 8.9375C4.13636 9.211 4.0358 9.47331 3.85678 9.6667C3.67777 9.8601 3.43498 9.96875 3.18182 9.96875C2.92866 9.96875 2.68586 9.8601 2.50685 9.6667C2.32784 9.47331 2.22727 9.211 2.22727 8.9375C2.22727 8.664 2.32784 8.40169 2.50685 8.2083C2.68586 8.0149 2.92866 7.90625 3.18182 7.90625ZM10.8182 7.90625C11.0713 7.90625 11.3141 8.0149 11.4931 8.2083C11.6722 8.40169 11.7727 8.664 11.7727 8.9375C11.7727 9.211 11.6722 9.47331 11.4931 9.6667C11.3141 9.8601 11.0713 9.96875 10.8182 9.96875C10.565 9.96875 10.3222 9.8601 10.1432 9.6667C9.9642 9.47331 9.86364 9.211 9.86364 8.9375C9.86364 8.664 9.9642 8.40169 10.1432 8.2083C10.3222 8.0149 10.565 7.90625 10.8182 7.90625Z" fill="white"/>
</svg>
