<svg width="48" height="26" viewBox="0 0 48 26" fill="none" xmlns="http://www.w3.org/2000/svg">
<path d="M1.06642 0C0.477452 0 0 0.487055 0 1.08787V22.0837C0 22.6845 0.477451 23.1716 1.06642 23.1716H10.9844C10.9843 23.1615 10.9842 23.1515 10.9842 23.1414C10.9841 23.1333 10.9841 23.1252 10.9841 23.1172C10.9841 20.804 12.8223 18.9289 15.0898 18.9289C17.3573 18.9289 19.1955 20.804 19.1955 23.1172C19.1955 23.1353 19.1954 23.1534 19.1952 23.1716H37.5382C37.538 23.1534 37.5379 23.1353 37.5379 23.1172C37.5379 20.804 39.3761 18.9289 41.6436 18.9289C43.9111 18.9289 45.7493 20.804 45.7493 23.1172C45.7493 23.1353 45.7492 23.1534 45.749 23.1716H46.9335C47.5585 23.1716 48.0495 22.6258 47.996 21.9906L47.4031 14.949C47.3697 14.5523 47.1265 14.2059 46.7691 14.0459L42.3965 12.0887C42.2179 12.0088 42.0643 11.8804 41.9522 11.7176L38.9228 7.3163C38.7232 7.02622 38.3975 6.85356 38.0501 6.85356H32.5791C31.9901 6.85356 31.5126 6.3665 31.5126 5.76569V1.08787C31.5126 0.487054 31.0352 0 30.4462 0H1.06642Z" fill="#B0B8BF"/>
<path d="M17.9158 23.1172C17.9158 24.7093 16.6506 26 15.0898 26C13.5291 26 12.2638 24.7093 12.2638 23.1172C12.2638 21.525 13.5291 20.2343 15.0898 20.2343C16.6506 20.2343 17.9158 21.525 17.9158 23.1172Z" fill="#B0B8BF"/>
<path d="M41.6436 26C43.2044 26 44.4696 24.7093 44.4696 23.1172C44.4696 21.525 43.2044 20.2343 41.6436 20.2343C40.0829 20.2343 38.8176 21.525 38.8176 23.1172C38.8176 24.7093 40.0829 26 41.6436 26Z" fill="#B0B8BF"/>
</svg>
