<svg width="54" height="25" viewBox="0 0 54 25" fill="none" xmlns="http://www.w3.org/2000/svg">
<path d="M1.06528 0C0.476944 0 0 0.476733 0 1.06481V21.1667C0 21.7548 0.476944 22.2315 1.06528 22.2315H9.14456C9.14445 22.2232 9.14437 22.2149 9.14431 22.2066C9.14425 22.1971 9.14422 22.1877 9.14422 22.1782C9.14422 19.9141 10.9804 18.0787 13.2456 18.0787C15.5107 18.0787 17.3469 19.9141 17.3469 22.1782C17.3469 22.196 17.3468 22.2138 17.3466 22.2315H43.5532L43.553 22.2182C43.5529 22.2049 43.5528 22.1916 43.5528 22.1782C43.5528 19.9141 45.3891 18.0787 47.6542 18.0787C49.9193 18.0787 51.7555 19.9141 51.7555 22.1782C51.7555 22.196 51.7554 22.2138 51.7552 22.2315H52.9346C53.5603 22.2315 54.0513 21.695 53.9957 21.0721L53.4153 14.5656C53.3777 14.1446 53.0946 13.7857 52.6938 13.6509L47.712 11.9759C47.5686 11.9277 47.4371 11.8495 47.3262 11.7465L41.7289 6.54427C41.5318 6.36108 41.2727 6.25926 41.0035 6.25926H34.6577C34.0694 6.25926 33.5924 5.78252 33.5924 5.19444V1.06482C33.5924 0.476734 33.1155 0 32.5272 0H1.06528Z" fill="#B0B8BF"/>
<path d="M16.0686 22.1782C16.0686 23.7367 14.8047 25 13.2456 25C11.6865 25 10.4226 23.7367 10.4226 22.1782C10.4226 20.6198 11.6865 19.3565 13.2456 19.3565C14.8047 19.3565 16.0686 20.6198 16.0686 22.1782Z" fill="#B0B8BF"/>
<path d="M47.6542 25C49.2133 25 50.4772 23.7367 50.4772 22.1782C50.4772 20.6198 49.2133 19.3565 47.6542 19.3565C46.0951 19.3565 44.8312 20.6198 44.8312 22.1782C44.8312 23.7367 46.0951 25 47.6542 25Z" fill="#B0B8BF"/>
</svg>
