<svg width="28" height="22" viewBox="0 0 28 22" fill="none" xmlns="http://www.w3.org/2000/svg">
<path d="M0 22V14.7685C0 11.9846 0.452736 9.40432 1.35821 7.02778C2.33333 4.65123 3.97015 2.30864 6.26866 0L10.3433 2.9537C8.81094 4.58333 7.69652 6.11111 7 7.53704C6.30348 8.89506 5.88557 10.2531 5.74627 11.6111H10.6567V22H0ZM17.3433 22V14.7685C17.3433 11.9846 17.796 9.40432 18.7015 7.02778C19.6766 4.65123 21.3134 2.30864 23.6119 0L27.6866 2.9537C26.1542 4.58333 25.0398 6.11111 24.3433 7.53704C23.6468 8.89506 23.2289 10.2531 23.0896 11.6111H28V22H17.3433Z" fill="#319CFF"/>
</svg>
