<svg width="128" height="68" viewBox="0 0 128 68" fill="none" xmlns="http://www.w3.org/2000/svg">
<g opacity="0.2">
<path d="M0 0L4 2.75549L8 0L5.24451 4L8 8L4 5.24451L0 8L2.75549 4L0 0Z" fill="white"/>
<path d="M0 20L4 22.7555L8 20L5.24451 24L8 28L4 25.2445L0 28L2.75549 24L0 20Z" fill="white"/>
<path d="M0 40L4 42.7555L8 40L5.24451 44L8 48L4 45.2445L0 48L2.75549 44L0 40Z" fill="white"/>
<path d="M0 60L4 62.7555L8 60L5.24451 64L8 68L4 65.2445L0 68L2.75549 64L0 60Z" fill="white"/>
<path d="M20 0L24 2.75549L28 0L25.2445 4L28 8L24 5.24451L20 8L22.7555 4L20 0Z" fill="white"/>
<path d="M20 20L24 22.7555L28 20L25.2445 24L28 28L24 25.2445L20 28L22.7555 24L20 20Z" fill="white"/>
<path d="M20 40L24 42.7555L28 40L25.2445 44L28 48L24 45.2445L20 48L22.7555 44L20 40Z" fill="white"/>
<path d="M20 60L24 62.7555L28 60L25.2445 64L28 68L24 65.2445L20 68L22.7555 64L20 60Z" fill="white"/>
<path d="M40 0L44 2.75549L48 0L45.2445 4L48 8L44 5.24451L40 8L42.7555 4L40 0Z" fill="white"/>
<path d="M40 20L44 22.7555L48 20L45.2445 24L48 28L44 25.2445L40 28L42.7555 24L40 20Z" fill="white"/>
<path d="M40 40L44 42.7555L48 40L45.2445 44L48 48L44 45.2445L40 48L42.7555 44L40 40Z" fill="white"/>
<path d="M40 60L44 62.7555L48 60L45.2445 64L48 68L44 65.2445L40 68L42.7555 64L40 60Z" fill="white"/>
<path d="M60 0L64 2.75549L68 0L65.2445 4L68 8L64 5.24451L60 8L62.7555 4L60 0Z" fill="white"/>
<path d="M60 20L64 22.7555L68 20L65.2445 24L68 28L64 25.2445L60 28L62.7555 24L60 20Z" fill="white"/>
<path d="M60 40L64 42.7555L68 40L65.2445 44L68 48L64 45.2445L60 48L62.7555 44L60 40Z" fill="white"/>
<path d="M60 60L64 62.7555L68 60L65.2445 64L68 68L64 65.2445L60 68L62.7555 64L60 60Z" fill="white"/>
<path d="M80 0L84 2.75549L88 0L85.2445 4L88 8L84 5.24451L80 8L82.7555 4L80 0Z" fill="white"/>
<path d="M80 20L84 22.7555L88 20L85.2445 24L88 28L84 25.2445L80 28L82.7555 24L80 20Z" fill="white"/>
<path d="M80 40L84 42.7555L88 40L85.2445 44L88 48L84 45.2445L80 48L82.7555 44L80 40Z" fill="white"/>
<path d="M80 60L84 62.7555L88 60L85.2445 64L88 68L84 65.2445L80 68L82.7555 64L80 60Z" fill="white"/>
<path d="M100 0L104 2.75549L108 0L105.245 4L108 8L104 5.24451L100 8L102.755 4L100 0Z" fill="white"/>
<path d="M100 20L104 22.7555L108 20L105.245 24L108 28L104 25.2445L100 28L102.755 24L100 20Z" fill="white"/>
<path d="M100 40L104 42.7555L108 40L105.245 44L108 48L104 45.2445L100 48L102.755 44L100 40Z" fill="white"/>
<path d="M100 60L104 62.7555L108 60L105.245 64L108 68L104 65.2445L100 68L102.755 64L100 60Z" fill="white"/>
<path d="M120 0L124 2.75549L128 0L125.245 4L128 8L124 5.24451L120 8L122.755 4L120 0Z" fill="white"/>
<path d="M120 20L124 22.7555L128 20L125.245 24L128 28L124 25.2445L120 28L122.755 24L120 20Z" fill="white"/>
<path d="M120 40L124 42.7555L128 40L125.245 44L128 48L124 45.2445L120 48L122.755 44L120 40Z" fill="white"/>
<path d="M120 60L124 62.7555L128 60L125.245 64L128 68L124 65.2445L120 68L122.755 64L120 60Z" fill="white"/>
</g>
</svg>
