<svg width="48" height="49" viewBox="0 0 48 49" fill="none" xmlns="http://www.w3.org/2000/svg">
<path d="M44.2225 13.436L29.2225 5.18599C29.001 5.06414 28.7523 5.00024 28.4995 5.00024C28.2467 5.00024 27.998 5.06414 27.7765 5.18599L12.7765 13.436C12.5414 13.5655 12.3452 13.7557 12.2086 13.9868C12.0721 14.218 12 14.4815 12 14.75C12 15.0185 12.0721 15.282 12.2086 15.5131C12.3452 15.7443 12.5414 15.9345 12.7765 16.064L26.9995 23.8865V39.965L22.4455 37.46L20.9995 40.0865L27.7765 43.814C27.9979 43.9361 28.2467 44.0002 28.4995 44.0002C28.7524 44.0002 29.0011 43.9361 29.2225 43.814L44.2225 35.564C44.4578 35.4346 44.654 35.2444 44.7907 35.0132C44.9274 34.7821 44.9995 34.5185 44.9995 34.25V14.75C44.9995 14.4815 44.9274 14.2179 44.7907 13.9868C44.654 13.7556 44.4578 13.5654 44.2225 13.436ZM28.4995 8.21299L40.387 14.75L28.4995 21.287L16.612 14.75L28.4995 8.21299ZM41.9995 33.3635L29.9995 39.9635V23.885L41.9995 17.285V33.3635Z" fill="#C1E1FF"/>
<path d="M15 24.5H3V21.5H15V24.5ZM18 36.5H6V33.5H18V36.5ZM21 30.5H9V27.5H21V30.5Z" fill="#C1E1FF"/>
</svg>
