<svg width="48" height="27" viewBox="0 0 48 27" fill="none" xmlns="http://www.w3.org/2000/svg">
<path d="M8.06619 6C7.47735 6 7 6.47869 7 7.06918V19.1509C7 19.7414 7.47735 20.2201 8.06619 20.2201H9.23933C9.23911 20.2023 9.23899 20.1845 9.23899 20.1667C9.23899 17.8933 11.0768 16.0503 13.3438 16.0503C15.6108 16.0503 17.4486 17.8933 17.4486 20.1667C17.4486 20.1845 17.4485 20.2023 17.4483 20.2201H30.5631C30.5629 20.2023 30.5627 20.1845 30.5627 20.1667C30.5627 17.8933 32.4006 16.0503 34.6676 16.0503C36.9346 16.0503 38.7724 17.8933 38.7724 20.1667C38.7724 20.1845 38.7723 20.2023 38.7721 20.2201H39.9337C40.5667 20.2201 41.0603 19.6703 40.994 19.039L40.4446 13.8045C40.4003 13.3826 40.1113 13.0268 39.7082 12.8979L34.348 11.1833C34.2418 11.1494 34.1417 11.0989 34.0511 11.0339L27.3228 6.20003C27.1417 6.06995 26.9246 6 26.7018 6H8.06619Z" fill="#E6EAEE"/>
<path d="M16.1692 20.1667C16.1692 21.7315 14.9042 23 13.3438 23C11.7834 23 10.5184 21.7315 10.5184 20.1667C10.5184 18.6019 11.7834 17.3333 13.3438 17.3333C14.9042 17.3333 16.1692 18.6019 16.1692 20.1667Z" fill="#E6EAEE"/>
<path d="M34.6676 23C36.228 23 37.493 21.7315 37.493 20.1667C37.493 18.6019 36.228 17.3333 34.6676 17.3333C33.1071 17.3333 31.8422 18.6019 31.8422 20.1667C31.8422 21.7315 33.1071 23 34.6676 23Z" fill="#E6EAEE"/>
</svg>
