<svg width="48" height="27" viewBox="0 0 48 27" fill="none" xmlns="http://www.w3.org/2000/svg">
<path d="M1.06642 0.5C0.477452 0.5 0 0.987055 0 1.58787V22.5837C0 23.1845 0.477451 23.6716 1.06642 23.6716H10.9844C10.9843 23.6615 10.9842 23.6515 10.9842 23.6414C10.9841 23.6333 10.9841 23.6252 10.9841 23.6172C10.9841 21.304 12.8223 19.4289 15.0898 19.4289C17.3573 19.4289 19.1955 21.304 19.1955 23.6172C19.1955 23.6353 19.1954 23.6534 19.1952 23.6716H37.5382C37.538 23.6534 37.5379 23.6353 37.5379 23.6172C37.5379 21.304 39.3761 19.4289 41.6436 19.4289C43.9111 19.4289 45.7493 21.304 45.7493 23.6172C45.7493 23.6353 45.7492 23.6534 45.749 23.6716H46.9335C47.5585 23.6716 48.0495 23.1258 47.996 22.4906L47.4031 15.449C47.3697 15.0523 47.1265 14.7059 46.7691 14.5459L42.3965 12.5887C42.2179 12.5088 42.0643 12.3804 41.9522 12.2176L38.9228 7.8163C38.7232 7.52622 38.3975 7.35356 38.0501 7.35356H32.5791C31.9901 7.35356 31.5126 6.8665 31.5126 6.26569V1.58787C31.5126 0.987054 31.0352 0.5 30.4462 0.5H1.06642Z" fill="#E6EAEE"/>
<path d="M17.9158 23.6172C17.9158 25.2093 16.6506 26.5 15.0898 26.5C13.5291 26.5 12.2638 25.2093 12.2638 23.6172C12.2638 22.025 13.5291 20.7343 15.0898 20.7343C16.6506 20.7343 17.9158 22.025 17.9158 23.6172Z" fill="#E6EAEE"/>
<path d="M41.6436 26.5C43.2044 26.5 44.4696 25.2093 44.4696 23.6172C44.4696 22.025 43.2044 20.7343 41.6436 20.7343C40.0829 20.7343 38.8176 22.025 38.8176 23.6172C38.8176 25.2093 40.0829 26.5 41.6436 26.5Z" fill="#E6EAEE"/>
</svg>
